<svg id="credito" xmlns="http://www.w3.org/2000/svg" width="26.645" height="26.647" viewBox="0 0 26.645 26.647">
  <g id="card" transform="translate(-0.023)">
    <path id="XMLID_2048_" d="M26.211,9.584,17.084.457a1.563,1.563,0,0,0-2.208,0L4.716,10.617H1.584A1.563,1.563,0,0,0,.023,12.178V25.086a1.563,1.563,0,0,0,1.561,1.561H20.946a1.563,1.563,0,0,0,1.561-1.561V15.5l3.7-3.7a1.563,1.563,0,0,0,0-2.208Zm-10.6-8.391a.521.521,0,0,1,.736,0l1.161,1.161L9.245,10.617H6.188Zm5.854,23.893a.521.521,0,0,1-.52.52H1.584a.521.521,0,0,1-.52-.52V12.178a.521.521,0,0,1,.52-.52H20.946a.521.521,0,0,1,.52.52Zm4.009-14.03-2.968,2.968V12.178a1.563,1.563,0,0,0-1.561-1.561h-6.4L20.159,5l5.317,5.317a.521.521,0,0,1,0,.736Z" transform="translate(0 0)" fill="#292f31"/>
    <circle id="XMLID_2067_" cx="1.874" cy="1.874" r="1.874" transform="translate(2.74 13.636)" fill="#292f31"/>
    <path id="XMLID_2068_" d="M48.543,383.026h2.2a.52.52,0,1,0,0-1.041h-2.2a.52.52,0,1,0,0,1.041Z" transform="translate(-45.502 -362.104)" fill="#292f31"/>
    <path id="XMLID_2069_" d="M55.492,437.985H48.543a.52.52,0,0,0,0,1.041h6.949a.52.52,0,0,0,0-1.041Z" transform="translate(-45.502 -415.189)" fill="#292f31"/>
    <path id="XMLID_2072_" d="M324.473,437.985h-2.2a.52.52,0,1,0,0,1.041h2.2a.52.52,0,0,0,0-1.041Z" transform="translate(-304.984 -415.189)" fill="#292f31"/>
    <path id="XMLID_2073_" d="M141.987,381.985h-2.2a.52.52,0,1,0,0,1.041h2.2a.52.52,0,1,0,0-1.041Z" transform="translate(-131.995 -362.104)" fill="#292f31"/>
    <path id="XMLID_2074_" d="M233.23,381.985h-2.2a.52.52,0,1,0,0,1.041h2.2a.52.52,0,1,0,0-1.041Z" transform="translate(-218.491 -362.104)" fill="#292f31"/>
    <path id="XMLID_2075_" d="M324.473,381.985h-2.2a.52.52,0,1,0,0,1.041h2.2a.52.52,0,1,0,0-1.041Z" transform="translate(-304.984 -362.104)" fill="#292f31"/>
    <path id="XMLID_2136_" d="M286.023,263.026v1.665a1.041,1.041,0,0,0,1.041,1.041h.729v-3.747h-.729A1.041,1.041,0,0,0,286.023,263.026Z" transform="translate(-271.115 -248.349)" fill="#292f31"/>
    <path id="XMLID_2323_" d="M341.793,264.691v-1.665a1.041,1.041,0,0,0-1.041-1.041h-.729v3.747h.729A1.041,1.041,0,0,0,341.793,264.691Z" transform="translate(-322.304 -248.349)" fill="#292f31"/>
  </g>
</svg>
