<svg id="debito" xmlns="http://www.w3.org/2000/svg" width="26.965" height="18.538" viewBox="0 0 26.965 18.538">
  <g id="card-debito" transform="translate(0 -80)">
    <path id="Caminho_1068" data-name="Caminho 1068" d="M24.016,80H2.949A2.953,2.953,0,0,0,0,82.949v12.64a2.953,2.953,0,0,0,2.949,2.949H24.016a2.953,2.953,0,0,0,2.949-2.949V82.949A2.953,2.953,0,0,0,24.016,80ZM2.949,81.685H24.016a1.265,1.265,0,0,1,1.264,1.264v1.685H1.685V82.949A1.265,1.265,0,0,1,2.949,81.685ZM24.016,96.853H2.949a1.265,1.265,0,0,1-1.264-1.264V86.32H25.28v9.269A1.265,1.265,0,0,1,24.016,96.853Z" fill="#292f31"/>
    <path id="Caminho_1069" data-name="Caminho 1069" d="M81.685,306.528h-.843a.843.843,0,0,1-.843-.843v-.843a.843.843,0,0,1,.843-.843h.843a.843.843,0,0,1,.843.843v.843A.843.843,0,0,1,81.685,306.528Z" transform="translate(-75.787 -212.203)" fill="#292f31"/>
  </g>
</svg>
