<svg id="dinheiro" xmlns="http://www.w3.org/2000/svg" width="26.945" height="24.129" viewBox="0 0 26.945 24.129">
  <g id="cedulas" transform="translate(0 -23.098)">
    <path id="Caminho_1070" data-name="Caminho 1070" d="M20.6,33.24s0-.01,0-.015a.6.6,0,0,0-.015-.073h0a.607.607,0,0,0-.023-.067l-.008-.019q-.011-.024-.023-.047L20.518,33l-.006-.011c-.009-.014-.019-.028-.029-.041l-.005-.008a.592.592,0,0,0-.049-.055l-.01-.01a.614.614,0,0,0-.047-.041l-.012-.01a.617.617,0,0,0-.067-.044l-8.981-5.105,5.171-3.256,8.669,4.928-3.651,2.3a.61.61,0,0,0,.65,1.032l4.513-2.842a.61.61,0,0,0-.024-1.046l-9.872-5.611a.61.61,0,0,0-.626.014L9.8,27.182l0,0L6.633,29.178l0,0L.287,33.175A.61.61,0,0,0,.311,34.22l9.872,5.611a.609.609,0,0,0,.626-.014l4.513-2.842a.61.61,0,1,0-.65-1.032l-4.2,2.647L1.8,33.664,6.97,30.407l9.246,5.256v6.961a.61.61,0,0,0,.934.516l3.171-2a.61.61,0,0,0,.285-.516V33.312s0-.007,0-.011Q20.6,33.271,20.6,33.24ZM17.435,41.52V35.308a.61.61,0,0,0-.308-.53L8.14,29.67l2-1.26,8.669,4.928-.759.478a.61.61,0,1,0,.65,1.032l.686-.432v5.875Z" transform="translate(-0.002)" fill="#292f31"/>
    <path id="Caminho_1071" data-name="Caminho 1071" d="M352.772,155.235l-4.513,2.842a.61.61,0,1,0,.65,1.032l4.513-2.842a.61.61,0,1,0-.65-1.032Z" transform="translate(-326.762 -123.994)" fill="#292f31"/>
    <path id="Caminho_1072" data-name="Caminho 1072" d="M14.669,229.722l-4.2,2.647L.911,226.939a.61.61,0,0,0-.6,1.06l9.872,5.611a.609.609,0,0,0,.626-.014l4.513-2.842a.61.61,0,0,0-.65-1.032Z" transform="translate(0 -191.34)" fill="#292f31"/>
    <path id="Caminho_1073" data-name="Caminho 1073" d="M352.772,195.235l-4.513,2.842a.61.61,0,1,0,.65,1.032l4.513-2.842a.61.61,0,1,0-.65-1.032Z" transform="translate(-326.762 -161.555)" fill="#292f31"/>
    <path id="Caminho_1074" data-name="Caminho 1074" d="M14.669,269.722l-4.2,2.647L.911,266.939a.61.61,0,0,0-.6,1.06l9.872,5.611a.609.609,0,0,0,.626-.014l4.513-2.842a.61.61,0,0,0-.65-1.032Z" transform="translate(0 -228.901)" fill="#292f31"/>
    <path id="Caminho_1075" data-name="Caminho 1075" d="M352.772,235.236l-4.513,2.842a.61.61,0,1,0,.65,1.032l4.513-2.842a.61.61,0,1,0-.65-1.032Z" transform="translate(-326.762 -199.118)" fill="#292f31"/>
    <path id="Caminho_1076" data-name="Caminho 1076" d="M14.669,309.722l-4.2,2.647L.911,306.939a.61.61,0,1,0-.6,1.06l9.872,5.611a.609.609,0,0,0,.626-.014l4.513-2.842a.61.61,0,0,0-.65-1.032Z" transform="translate(0 -266.463)" fill="#292f31"/>
  </g>
</svg>
