<svg id="pix" xmlns="http://www.w3.org/2000/svg" width="23.628" height="23.628" viewBox="0 0 23.628 23.628">
  <g id="logo-pix" transform="translate(0.023 -23.092)">
    <path id="Caminho_1956" data-name="Caminho 1956" d="M77.634,205.871a3.449,3.449,0,0,1-2.454-1.013l-3.545-3.547a.674.674,0,0,0-.931,0l-3.557,3.557a3.45,3.45,0,0,1-2.454,1.016H64l4.492,4.492a3.593,3.593,0,0,0,5.076,0l4.5-4.5Z" transform="translate(-59.23 -164.705)" fill="#292f31"/>
    <path id="Caminho_1957" data-name="Caminho 1957" d="M64.695,28.632a3.45,3.45,0,0,1,2.454,1.016l3.557,3.557a.66.66,0,0,0,.931,0l3.544-3.544a3.444,3.444,0,0,1,2.454-1.017h.427l-4.5-4.5a3.589,3.589,0,0,0-5.076,0L64,28.632Z" transform="translate(-59.23)" fill="#292f31"/>
    <path id="Caminho_1958" data-name="Caminho 1958" d="M22.554,113.242l-2.72-2.72a.524.524,0,0,1-.193.039H18.4a2.442,2.442,0,0,0-1.717.711l-3.544,3.542a1.7,1.7,0,0,1-2.405,0l-3.557-3.555a2.442,2.442,0,0,0-1.717-.712H3.947a.533.533,0,0,1-.183-.037l-2.737,2.732a3.593,3.593,0,0,0,0,5.076l2.731,2.731a.513.513,0,0,1,.183-.037H5.465a2.443,2.443,0,0,0,1.717-.712l3.557-3.557a1.743,1.743,0,0,1,2.406,0l3.544,3.543A2.442,2.442,0,0,0,18.4,121h1.237a.516.516,0,0,1,.193.039l2.72-2.72a3.589,3.589,0,0,0,0-5.076" transform="translate(0 -80.873)" fill="#292f31"/>
  </g>
</svg>
