<svg xmlns="http://www.w3.org/2000/svg" width="45.708" height="38.9" viewBox="0 0 45.708 38.9">
  <g id="area" transform="translate(-86.81 -56)">
    <path id="Caminho_2348" data-name="Caminho 2348" d="M117.429,56a6.405,6.405,0,0,0-6.306,6.519,8.327,8.327,0,0,0,.5,2.614l5.82,12.263,5.82-12.263a8.277,8.277,0,0,0,.5-2.614A6.43,6.43,0,0,0,117.428,56ZM101.4,57.945,86.81,63.78V94.9L101.4,89.065Zm.972,0V89.065L116.958,94.9V78.307l-6.215-12.9a9.377,9.377,0,0,1-.578-2.978,7.533,7.533,0,0,1,.121-1.307l-7.917-3.176Zm30.148,0-7.886,3.161a7.44,7.44,0,0,1,.121,1.322,9.34,9.34,0,0,1-.577,2.978L117.93,78.367V94.9l14.588-5.835ZM117.444,59.4a2.918,2.918,0,1,1-2.918,2.918A2.918,2.918,0,0,1,117.444,59.4Z" fill="#05cb95"/>
  </g>
</svg>
