<svg xmlns="http://www.w3.org/2000/svg" width="35.577" height="39.744" viewBox="0 0 35.577 39.744">
  <g id="bairro" transform="translate(-145.042 -39.756)">
    <path id="Caminho_2347" data-name="Caminho 2347" d="M163.956,63.172l15.61-13.551a10,10,0,0,1,1.053,4.453V69.4a10.007,10.007,0,0,1-3.112,7.278Zm-15.61,13.551a9.947,9.947,0,0,0,6.9,2.777h15.323a9.352,9.352,0,0,0,3.448-.623l-13.12-13.024Zm22.17-32.657h-9.529a8.494,8.494,0,0,1,.479,2.921c0,2.011-1.293,4.836-3.927,8.667-1.82,2.634-3.639,4.788-3.735,4.884l-1.245,1.437-1.245-1.437c-.1-.1-1.867-2.2-3.735-4.884-.91-1.341-1.676-2.586-2.3-3.687a11.086,11.086,0,0,0-.239,2.2V69.492a10.229,10.229,0,0,0,.814,4.022l31.077-26.959a9.178,9.178,0,0,0-6.417-2.49ZM148.01,53.212a24.061,24.061,0,0,1-2.155-4.07c-.048-.144-.1-.335-.144-.479a5.86,5.86,0,0,1-.287-1.676A6.929,6.929,0,0,1,146,44.161c.1-.239.191-.431.287-.623a3.388,3.388,0,0,1,.574-.862,7.278,7.278,0,0,1,5.794-2.921,7.125,7.125,0,0,1,5.985,3.208,7.265,7.265,0,0,1,1.245,4.022,6.675,6.675,0,0,1-.67,2.634,2.228,2.228,0,0,1-.239.479,16.052,16.052,0,0,1-.958,1.772c-.1.191-.191.335-.287.527-.144.239-.335.527-.479.766s-.335.527-.479.766a.479.479,0,0,1-.191.239c-.1.144-.239.335-.335.479a.842.842,0,0,1-.191.239c-.191.239-.335.479-.527.718-.048.1-.1.144-.144.239-1.484,2.059-2.777,3.543-2.777,3.543a64.931,64.931,0,0,1-3.974-5.219,5.06,5.06,0,0,1-.335-.527,1.651,1.651,0,0,0-.287-.431Zm7.47-6.943a3.041,3.041,0,0,0-.814-2.011l-.1-.1a1.726,1.726,0,0,0-.574-.383c-.048,0-.1-.048-.144-.048-.1-.048-.144-.1-.239-.1a3.093,3.093,0,0,0-.958-.191,2.143,2.143,0,0,0-.958.191c-.1.048-.191.048-.24.1a2.09,2.09,0,0,0-.335.191c-.1.048-.144.1-.24.144-.048.048-.144.1-.191.191l-.287.287c-.048.048-.048.1-.1.1a1.5,1.5,0,0,0-.239.479,2.164,2.164,0,0,0-.144.527,2.336,2.336,0,0,0-.048.575,3.08,3.08,0,0,0,.335,1.341.168.168,0,0,0,.048.1c.048.1.1.144.144.239l.287.287.191.191.1.1a2.944,2.944,0,0,0,1.676.575,3.041,3.041,0,0,0,2.011-.814l.191-.191a2.651,2.651,0,0,0,.623-1.772Z" transform="translate(0 0)" fill="#888b8b"/>
  </g>
</svg>
