<svg xmlns="http://www.w3.org/2000/svg" width="27.465" height="29.578" viewBox="0 0 27.465 29.578">
  <g id="download" transform="translate(-17.067)">
    <g id="Grupo_460" data-name="Grupo 460" transform="translate(17.067 9.507)">
      <g id="Grupo_459" data-name="Grupo 459" transform="translate(0)">
        <path id="Caminho_774" data-name="Caminho 774" d="M41.363,153.6H36.081a1.056,1.056,0,0,0,0,2.113h5.282a1.056,1.056,0,0,1,1.056,1.056V170.5a1.056,1.056,0,0,1-1.056,1.056H20.236A1.056,1.056,0,0,1,19.18,170.5V156.769a1.056,1.056,0,0,1,1.056-1.056h5.282a1.056,1.056,0,1,0,0-2.113H20.236a3.169,3.169,0,0,0-3.169,3.169V170.5a3.169,3.169,0,0,0,3.169,3.169H41.363a3.169,3.169,0,0,0,3.169-3.169V156.769A3.169,3.169,0,0,0,41.363,153.6Z" transform="translate(-17.067 -153.6)" fill="#292f31"/>
      </g>
    </g>
    <g id="Grupo_462" data-name="Grupo 462" transform="translate(24.474)">
      <g id="Grupo_461" data-name="Grupo 461">
        <path id="Caminho_775" data-name="Caminho 775" d="M149.072,15.1a1.056,1.056,0,0,0-1.468,0l-3.481,3.479V1.056a1.056,1.056,0,0,0-2.113,0V18.577L138.532,15.1a1.056,1.056,0,0,0-1.494,1.494l5.282,5.282a1.056,1.056,0,0,0,1.494,0l0,0,5.282-5.282A1.056,1.056,0,0,0,149.072,15.1Z" transform="translate(-136.742)" fill="#292f31"/>
      </g>
    </g>
  </g>
</svg>
