<svg xmlns="http://www.w3.org/2000/svg" width="15.493" height="20.287" viewBox="0 0 15.493 20.287">
  <g id="cardapio" transform="translate(-33 -167.598)">
    <g id="cardapio-2" data-name="cardapio" transform="translate(-27.5 167.598)">
      <path id="Caminho_875" data-name="Caminho 875" d="M74.606,0H62.957A1.388,1.388,0,0,0,61.57,1.387V3.142h-.475a.594.594,0,0,0,0,1.189h.475V9.549h-.475a.594.594,0,0,0,0,1.189h.475v5.218h-.475a.594.594,0,0,0,0,1.189h.475V18.9a1.388,1.388,0,0,0,1.387,1.387H74.606A1.388,1.388,0,0,0,75.993,18.9V1.387A1.388,1.388,0,0,0,74.606,0Zm.2,18.9a.2.2,0,0,1-.2.2H62.957a.2.2,0,0,1-.2-.2V17.145h.475a.594.594,0,1,0,0-1.189h-.475V10.738h.475a.594.594,0,0,0,0-1.189h-.475V4.331h.475a.594.594,0,0,0,0-1.189h-.475V1.387a.2.2,0,0,1,.2-.2H74.606a.2.2,0,0,1,.2.2Z" fill="#05cb95"/>
      <path id="Caminho_876" data-name="Caminho 876" d="M161.408,79.5H160.8a3.48,3.48,0,0,0-2.826-2.826v-.817h.74a.594.594,0,0,0,0-1.189h-2.668a.594.594,0,1,0,0,1.189h.74v.817a3.48,3.48,0,0,0-2.826,2.826h-.612a.594.594,0,0,0,0,1.189h8.063a.594.594,0,1,0,0-1.189Zm-6.236,0a2.283,2.283,0,0,1,4.408,0Z" transform="translate(-88.595 -71.708)" fill="#05cb95"/>
      <path id="Caminho_877" data-name="Caminho 877" d="M171.306,323.05h-7.211a.594.594,0,1,0,0,1.189h7.211a.594.594,0,1,0,0-1.189Z" transform="translate(-98.919 -310.25)" fill="#05cb95"/>
      <path id="Caminho_878" data-name="Caminho 878" d="M206.018,402.7h-4.224a.594.594,0,1,0,0,1.189h4.224a.594.594,0,1,0,0-1.189Z" transform="translate(-135.125 -386.744)" fill="#05cb95"/>
    </g>
  </g>
</svg>
