<svg xmlns="http://www.w3.org/2000/svg" width="19.932" height="17.27" viewBox="0 0 19.932 17.27">
  <g id="complementos" transform="translate(-31 -207.998)">
    <g id="complementos-2" data-name="complementos" transform="translate(31 173.814)">
      <g id="Grupo_27" data-name="Grupo 27" transform="translate(0 34.184)">
        <g id="Grupo_26" data-name="Grupo 26">
          <path id="Caminho_17" data-name="Caminho 17" d="M19.465,38.186l-9.183-3.939a.782.782,0,0,0-.617,0L.482,38.186a.783.783,0,0,0,0,1.439l9.183,3.913a.782.782,0,0,0,.613,0l9.183-3.913a.782.782,0,0,0,0-1.439ZM9.974,41.968,2.781,38.9l7.192-3.085L17.166,38.9Z" transform="translate(-0.008 -34.184)" fill="#05cb95"/>
        </g>
      </g>
      <g id="Grupo_29" data-name="Grupo 29" transform="translate(0 45.949)">
        <g id="Grupo_28" data-name="Grupo 28">
          <path id="Caminho_18" data-name="Caminho 18" d="M19.868,336.879a.782.782,0,0,0-1.028-.411l-8.875,3.807-8.875-3.807a.783.783,0,0,0-.617,1.438l9.183,3.94a.783.783,0,0,0,.617,0l9.183-3.94A.783.783,0,0,0,19.868,336.879Z" transform="translate(0 -336.404)" fill="#05cb95"/>
        </g>
      </g>
      <g id="Grupo_31" data-name="Grupo 31" transform="translate(0 42.036)">
        <g id="Grupo_30" data-name="Grupo 30">
          <path id="Caminho_19" data-name="Caminho 19" d="M19.875,236.364a.783.783,0,0,0-1.027-.413l-8.876,3.783L1.1,235.951a.783.783,0,1,0-.614,1.44L9.665,241.3a.783.783,0,0,0,.614,0l9.183-3.913A.783.783,0,0,0,19.875,236.364Z" transform="translate(-0.007 -235.888)" fill="#05cb95"/>
        </g>
      </g>
    </g>
  </g>
</svg>
