<svg xmlns="http://www.w3.org/2000/svg" width="14.636" height="19.215" viewBox="0 0 14.636 19.215">
  <g id="planos" transform="translate(-34 -206)">
    <g id="seu-plano" transform="translate(32 206.283)">
      <g id="plano" transform="translate(-59 -0.283)">
        <path id="Caminho_205" data-name="Caminho 205" d="M75.471,4.668l-4.5-4.5A.564.564,0,0,0,70.57,0H62.689A1.691,1.691,0,0,0,61,1.689V17.526a1.691,1.691,0,0,0,1.689,1.689H73.948a1.691,1.691,0,0,0,1.689-1.689V5.066A.568.568,0,0,0,75.471,4.668ZM71.133,1.922,73.714,4.5H71.7a.564.564,0,0,1-.563-.563Zm2.815,16.167H62.689a.564.564,0,0,1-.563-.563V1.689a.564.564,0,0,1,.563-.563h7.318V3.941A1.691,1.691,0,0,0,71.7,5.629h2.815v11.9A.564.564,0,0,1,73.948,18.089Z" transform="translate(0)" fill="#05cb95"/>
        <path id="Caminho_206" data-name="Caminho 206" d="M158.318,212h-6.755a.563.563,0,1,0,0,1.126h6.755a.563.563,0,1,0,0-1.126Z" transform="translate(-86.622 -204.044)" fill="#05cb95"/>
        <path id="Caminho_207" data-name="Caminho 207" d="M158.318,272h-6.755a.563.563,0,1,0,0,1.126h6.755a.563.563,0,1,0,0-1.126Z" transform="translate(-86.622 -261.792)" fill="#05cb95"/>
        <path id="Caminho_208" data-name="Caminho 208" d="M158.318,332h-6.755a.563.563,0,0,0,0,1.126h6.755a.563.563,0,0,0,0-1.126Z" transform="translate(-86.622 -319.54)" fill="#05cb95"/>
        <path id="Caminho_209" data-name="Caminho 209" d="M156.066,392h-4.5a.563.563,0,0,0,0,1.126h4.5a.563.563,0,0,0,0-1.126Z" transform="translate(-86.622 -377.289)" fill="#05cb95"/>
      </g>
    </g>
  </g>
</svg>
