<svg xmlns="http://www.w3.org/2000/svg" width="16" height="20.009" viewBox="0 0 16 20.009">
  <g id="home" transform="translate(-33 -90.023)">
    <path id="home-2" data-name="home" d="M41,92.353l6.154,6.256v9.545H44.077v-4.379a1.241,1.241,0,0,0-1.231-1.251H39.154a1.241,1.241,0,0,0-1.231,1.251v4.379H34.846V98.609L41,92.353m.544-2.1a.76.76,0,0,0-1.088,0l-7.1,7.214A1.262,1.262,0,0,0,33,98.35v10.43a1.241,1.241,0,0,0,1.231,1.251h4.308a1.241,1.241,0,0,0,1.231-1.251V104.4h2.462v4.379a1.241,1.241,0,0,0,1.231,1.251h4.308A1.241,1.241,0,0,0,49,108.78V98.35a1.262,1.262,0,0,0-.361-.885Z" fill="#292f31"/>
  </g>
</svg>
