<svg xmlns="http://www.w3.org/2000/svg" width="32.389" height="29" viewBox="0 0 32.389 29">
  <g id="especial" transform="translate(-113.782 -64.656)">
    <path id="Caminho_2192" data-name="Caminho 2192" d="M145.787,75.243c-.037-.049-.077-.1-.118-.141a1.936,1.936,0,0,0-.593-.435,1.958,1.958,0,0,0-.839-.187h-3.645l-6.507-9.331a1.167,1.167,0,0,0-1.6-.295,1.12,1.12,0,0,0-.3,1.575l5.614,8.05H121.63l5.614-8.05a1.12,1.12,0,0,0-.3-1.575,1.167,1.167,0,0,0-1.6.295l-6.507,9.331h-3.118a1.954,1.954,0,0,0-.753.149c-.058.024-.114.051-.169.08s-.108.061-.159.095a1.917,1.917,0,0,0-.286.232,1.9,1.9,0,0,0-.415.6,1.775,1.775,0,0,0-.065.175c-.019.06-.035.12-.048.182a1.76,1.76,0,0,0-.029.189,1.936,1.936,0,0,0-.01.194v2.466a1.917,1.917,0,0,0,1.935,1.9h1.13l.291,1.453.054.269,1.813,9.038a2.822,2.822,0,0,0,2.664,2.151h16.617a2.822,2.822,0,0,0,2.664-2.151l2.159-10.76h1.13a1.917,1.917,0,0,0,1.935-1.9V76.379a1.875,1.875,0,0,0-.385-1.137ZM125.513,89.654a1.191,1.191,0,0,1-2.381,0V85.007a1.191,1.191,0,0,1,2.381,0Zm3.769,0a1.191,1.191,0,0,1-2.381,0V85.007a1.191,1.191,0,0,1,2.381,0Zm3.769,0a1.191,1.191,0,0,1-2.381,0V85.007a1.191,1.191,0,0,1,2.381,0Zm3.769,0a1.191,1.191,0,0,1-2.381,0V85.007a1.191,1.191,0,0,1,2.381,0Z" fill="#292f31"/>
  </g>
</svg>
