<svg id="facebook" xmlns="http://www.w3.org/2000/svg" width="12.364" height="22.869" viewBox="0 0 12.364 22.869">
  <path id="Caminho_31" data-name="Caminho 31" d="M33.976,0,31.01,0c-3.332,0-5.485,2.209-5.485,5.628V8.223H22.543a.466.466,0,0,0-.466.467v3.76a.466.466,0,0,0,.466.466h2.982V22.4a.466.466,0,0,0,.466.466h3.89a.466.466,0,0,0,.466-.466V12.916h3.486a.466.466,0,0,0,.466-.466V8.69a.467.467,0,0,0-.467-.467H30.348v-2.2c0-1.057.252-1.594,1.629-1.594h2a.466.466,0,0,0,.466-.466V.471A.466.466,0,0,0,33.976,0Z" transform="translate(-22.077)" fill="#05cb95"/>
</svg>
