<svg xmlns="http://www.w3.org/2000/svg" width="26.6" height="30.335" viewBox="0 0 26.6 30.335">
  <g id="google-play" transform="translate(-3 -1.734)">
    <path id="Caminho_901" data-name="Caminho 901" d="M4.477,1.734a1.477,1.477,0,0,1,.74.2l23.646,13.69a1.477,1.477,0,0,1,0,2.556L5.218,31.87A1.477,1.477,0,0,1,3,30.592V3.211A1.477,1.477,0,0,1,4.477,1.734ZM16.729,18.991l-6.646,6.646,8.42-4.874L16.73,18.99ZM5.955,8.211V25.587L14.643,16.9ZM21.15,14.567,18.818,16.9l2.331,2.33,4.025-2.33-4.026-2.333ZM10.083,8.161l6.649,6.649L18.5,13.037l-8.42-4.876Z" transform="translate(0 0)" fill="#373938"/>
  </g>
</svg>
