<svg xmlns="http://www.w3.org/2000/svg" width="12.302" height="17.496" viewBox="0 0 12.302 17.496">
  <g id="icon-map" transform="translate(-76)">
    <path id="Caminho_355" data-name="Caminho 355" d="M82.151,0A6.156,6.156,0,0,0,76,6.151a6.065,6.065,0,0,0,.923,3.229l4.811,7.874a.486.486,0,0,0,.349.236.51.51,0,0,0,.523-.246L87.43,9.3A6.066,6.066,0,0,0,88.3,6.151,6.156,6.156,0,0,0,82.151,0Zm0,9.226a3.075,3.075,0,1,1,3.075-3.075A3.071,3.071,0,0,1,82.151,9.226Z" transform="translate(0 0)" fill="#373938"/>
    <path id="Caminho_356" data-name="Caminho 356" d="M256,0V3.075a3.075,3.075,0,0,1,0,6.151V17.5a.508.508,0,0,0,.454-.252L261.279,9.3a6.066,6.066,0,0,0,.871-3.147A6.156,6.156,0,0,0,256,0Z" transform="translate(-173.849 0)" fill="#373938"/>
  </g>
</svg>
