<svg id="instagram" xmlns="http://www.w3.org/2000/svg" width="18.968" height="18.968" viewBox="0 0 18.968 18.968">
  <path id="Caminho_32" data-name="Caminho 32" d="M16.19,0H2.779A2.782,2.782,0,0,0,0,2.779V16.19a2.782,2.782,0,0,0,2.779,2.779H16.19a2.782,2.782,0,0,0,2.779-2.779V2.779A2.782,2.782,0,0,0,16.19,0ZM9.521,14.448a5,5,0,1,1,5-5A5.007,5.007,0,0,1,9.521,14.448Zm5.557-8.891A1.667,1.667,0,1,1,16.745,3.89,1.669,1.669,0,0,1,15.078,5.557Zm0,0" fill="#05cb95"/>
  <path id="Caminho_33" data-name="Caminho 33" d="M392.556,90a.556.556,0,1,0,.556.556A.556.556,0,0,0,392.556,90Zm0,0" transform="translate(-377.477 -86.666)" fill="#05cb95"/>
  <path id="Caminho_34" data-name="Caminho 34" d="M155.89,150a3.89,3.89,0,1,0,3.89,3.89A3.895,3.895,0,0,0,155.89,150Zm0,0" transform="translate(-146.369 -144.443)" fill="#05cb95"/>
</svg>
