<svg xmlns="http://www.w3.org/2000/svg" width="31.232" height="29.001" viewBox="0 0 31.232 29.001">
  <g id="pro" transform="translate(-104.995 -52.5)">
    <path id="Caminho_2196" data-name="Caminho 2196" d="M507.8,247.231h4.419V245H506.58Z" transform="translate(-375.989 -180.23)" fill="#292f31"/>
    <path id="Caminho_2197" data-name="Caminho 2197" d="M264.971,161.4v.558h5.275a5.583,5.583,0,0,1,.646-1.365,4.464,4.464,0,0,0-6.084-2.7,5.069,5.069,0,0,1,.163,1.279,1.666,1.666,0,0,1-.428,1.115,1.666,1.666,0,0,1,.428,1.115Z" transform="translate(-149.379 -98.308)" fill="#292f31"/>
    <path id="Caminho_2198" data-name="Caminho 2198" d="M379.545,184.743a4.462,4.462,0,0,0-6.939,1.8h8.273A4.491,4.491,0,0,0,379.545,184.743Z" transform="translate(-250.554 -122.887)" fill="#292f31"/>
    <path id="Caminho_2199" data-name="Caminho 2199" d="M302.558,77.689q.173-.167.361-.319h0a5.579,5.579,0,0,1,8.825,2.666h1.371a2.231,2.231,0,1,0-.489-4.407.558.558,0,0,1-.557-.893,2.205,2.205,0,0,0,.489-1.393,2.231,2.231,0,0,0-3.886-1.5.558.558,0,0,1-.907-.114A3.406,3.406,0,0,0,304.749,70a3.309,3.309,0,0,0-3.2,2.167.558.558,0,0,1-.788.317,2.2,2.2,0,0,0-1.032-.253A2.233,2.233,0,0,0,297.5,74.46a5.576,5.576,0,0,1,5.059,3.23Z" transform="translate(-180.234 -16.383)" fill="#292f31"/>
    <path id="Caminho_2200" data-name="Caminho 2200" d="M538.536,297.5h-3.318l2.7,4.949Z" transform="translate(-402.801 -229.384)" fill="#292f31"/>
    <path id="Caminho_2201" data-name="Caminho 2201" d="M222.09,245.607a.558.558,0,0,1,.223.757l-.476.872h14.758l-.488-.9a.557.557,0,0,1,.222-.757L237.39,245h-16.4Z" transform="translate(-108.598 -180.235)" fill="#292f31"/>
    <path id="Caminho_2202" data-name="Caminho 2202" d="M161.962,53.058a.558.558,0,0,0-.558-.558h-3.346a.558.558,0,0,0-.558.558v.558h4.462Z" transform="translate(-49.158)" fill="#292f31"/>
    <path id="Caminho_2203" data-name="Caminho 2203" d="M139.058,210.558A.558.558,0,0,0,138.5,210h-6.693a.558.558,0,0,0-.558.558v.558h7.808Z" transform="translate(-24.582 -147.461)" fill="#292f31"/>
    <path id="Caminho_2204" data-name="Caminho 2204" d="M110.644,245h-5.649v2.231h4.432Z" transform="translate(0 -180.23)" fill="#292f31"/>
    <path id="Caminho_2205" data-name="Caminho 2205" d="M163.81,89.731h3.657a5.042,5.042,0,0,1-.7-2.231H164.51a5.042,5.042,0,0,1-.7,2.231Z" transform="translate(-55.066 -32.769)" fill="#292f31"/>
    <path id="Caminho_2206" data-name="Caminho 2206" d="M116.059,297.5h-3.331l.621,4.968Z" transform="translate(-7.24 -229.384)" fill="#292f31"/>
    <path id="Caminho_2207" data-name="Caminho 2207" d="M156.764,300.228v2.85a.558.558,0,0,1-1.115,0v-3.346a.557.557,0,0,1,.541-.557l-.913-1.674H139.3l-.913,1.675a.557.557,0,0,1,.528.556v3.346a.558.558,0,1,1-1.115,0v-2.826l-4.108,7.531a1.669,1.669,0,0,1-.211.3l.237,1.9a1.084,1.084,0,0,0,1.108.9h24.91a1.084,1.084,0,0,0,1.108-.9l.24-1.92a1.673,1.673,0,0,1-.214-.3Zm-20.078,8.427a.558.558,0,1,1-1.115,0v-3.346a.558.558,0,1,1,1.115,0Zm2.231,0a.558.558,0,1,1-1.115,0v-3.346a.558.558,0,1,1,1.115,0Zm2.231,0a.558.558,0,1,1-1.115,0v-3.346a.558.558,0,1,1,1.115,0Zm0-5.577a.558.558,0,0,1-1.115,0v-3.346a.558.558,0,1,1,1.115,0Zm2.231,5.577a.558.558,0,1,1-1.115,0v-3.346a.558.558,0,1,1,1.115,0Zm0-5.577a.558.558,0,0,1-1.115,0v-3.346a.558.558,0,1,1,1.115,0Zm2.231,5.577a.558.558,0,1,1-1.115,0v-3.346a.558.558,0,1,1,1.115,0Zm0-5.577a.558.558,0,0,1-1.115,0v-3.346a.558.558,0,1,1,1.115,0Zm2.231,5.577a.558.558,0,1,1-1.115,0v-3.346a.558.558,0,1,1,1.115,0Zm0-5.577a.558.558,0,0,1-1.115,0v-3.346a.558.558,0,1,1,1.115,0Zm2.231,5.577a.558.558,0,1,1-1.115,0v-3.346a.558.558,0,1,1,1.115,0Zm0-5.577a.558.558,0,0,1-1.115,0v-3.346a.558.558,0,1,1,1.115,0Zm2.231,5.577a.558.558,0,1,1-1.115,0v-3.346a.558.558,0,1,1,1.115,0Zm0-5.577a.558.558,0,0,1-1.115,0v-3.346a.558.558,0,1,1,1.115,0Zm2.231,5.577a.558.558,0,1,1-1.115,0v-3.346a.558.558,0,0,1,1.115,0Zm0-5.577a.558.558,0,0,1-1.115,0v-3.346a.558.558,0,1,1,1.115,0Zm2.231,5.577a.558.558,0,1,1-1.115,0v-3.346a.558.558,0,0,1,1.115,0Zm2.231,0a.558.558,0,1,1-1.115,0v-3.346a.558.558,0,1,1,1.115,0Z" transform="translate(-26.671 -229.385)" fill="#292f31"/>
    <path id="Caminho_2208" data-name="Caminho 2208" d="M478.732,256.87l-.979.534,6.425,11.78a.558.558,0,1,0,.979-.534Z" transform="translate(-348.999 -191.344)" fill="#292f31"/>
    <path id="Caminho_2209" data-name="Caminho 2209" d="M111.5,257.24l-6.425,11.78a.558.558,0,1,0,.979.534l6.426-11.78Z" transform="translate(-0.008 -191.69)" fill="#292f31"/>
    <path id="Caminho_2210" data-name="Caminho 2210" d="M131.807,143.346H138.5a.558.558,0,0,0,.558-.558A3.863,3.863,0,0,0,137.883,140h-5.459a3.863,3.863,0,0,0-1.174,2.789A.558.558,0,0,0,131.807,143.346Z" transform="translate(-24.581 -81.923)" fill="#292f31"/>
  </g>
</svg>
