<svg xmlns="http://www.w3.org/2000/svg" width="18.849" height="11.133" viewBox="0 0 18.849 11.133">
  <g id="select-duvidas" transform="translate(18.849 11.133) rotate(180)">
    <g id="Grupo_60" data-name="Grupo 60" transform="translate(0)">
      <path id="Caminho_403" data-name="Caminho 403" d="M18.548.931,17.93.309a1.034,1.034,0,0,0-1.458,0L9.429,7.352,2.377.3A1.034,1.034,0,0,0,.919.3L.3.919a1.032,1.032,0,0,0,0,1.458L8.7,10.8a1.054,1.054,0,0,0,.731.331h0a1.054,1.054,0,0,0,.729-.331l8.388-8.4a1.041,1.041,0,0,0,.3-.737A1.031,1.031,0,0,0,18.548.931Z" fill="#fff"/>
    </g>
  </g>
</svg>
