<svg xmlns="http://www.w3.org/2000/svg" width="28.245" height="29" viewBox="0 0 28.245 29">
  <path id="startup" d="M122.506,38.822l-3.418-20.508a.966.966,0,0,0-.953-.807H98.8a.966.966,0,0,0-.953.807L94.43,38.822a6.284,6.284,0,0,0,1.752,5.462l.387.387A6.231,6.231,0,0,0,101,46.507h14.939a6.23,6.23,0,0,0,4.434-1.837l.387-.387a6.284,6.284,0,0,0,1.748-5.462Zm-14.038-8.749a7.742,7.742,0,0,1-7.733-7.733.967.967,0,1,1,1.933,0,5.8,5.8,0,1,0,11.6,0,.967.967,0,1,1,1.933,0,7.742,7.742,0,0,1-7.733,7.733Z" transform="translate(-94.346 -17.507)" fill="#292f31"/>
</svg>
