<svg xmlns="http://www.w3.org/2000/svg" width="15.964" height="15.28" viewBox="0 0 15.964 15.28">
  <path id="star" d="M131.635,63.315,133.449,67a1.23,1.23,0,0,0,.922.676l4.064.615a.664.664,0,0,1,.369,1.138L135.866,72.3h0a1.23,1.23,0,0,0-.35,1.088l.689,4.04h0a.664.664,0,0,1-.965.707L131.6,76.227a1.229,1.229,0,0,0-1.144,0l-3.634,1.906a.664.664,0,0,1-.965-.707l.689-4.04h0a1.23,1.23,0,0,0-.35-1.088l-2.951-2.9a.664.664,0,0,1,.393-1.138l4.065-.615a1.23,1.23,0,0,0,.922-.676l1.814-3.689a.67.67,0,0,1,1.193.037Z" transform="translate(-123.046 -62.931)" fill="#effbf7"/>
</svg>
