<svg xmlns="http://www.w3.org/2000/svg" width="30.987" height="29" viewBox="0 0 30.987 29">
  <g id="super" transform="translate(-151.201 -95.762)">
    <path id="Caminho_2193" data-name="Caminho 2193" d="M179.318,142.8H154.291l-3.09,3.531a3.306,3.306,0,0,0,6.356,1.28,3.339,3.339,0,0,0,3.046,2.031,3.292,3.292,0,0,0,3.046-2.031,3.339,3.339,0,0,0,3.046,2.031,3.292,3.292,0,0,0,3.046-2.031,3.339,3.339,0,0,0,3.046,2.031,3.293,3.293,0,0,0,3.046-2.031,3.306,3.306,0,0,0,6.356-1.28Z" transform="translate(0 -43.33)" fill="#292f31"/>
    <path id="Caminho_2194" data-name="Caminho 2194" d="M191.52,95.762h24.895v2.031H191.52Z" transform="translate(-37.141 0)" fill="#292f31"/>
    <path id="Caminho_2195" data-name="Caminho 2195" d="M214.267,259.28H192.594a1.629,1.629,0,0,0-1.633,1.633v12.845a1.629,1.629,0,0,0,1.633,1.633h13.374V263.164h6.356v12.227h1.9a1.629,1.629,0,0,0,1.633-1.633V260.913a1.592,1.592,0,0,0-1.589-1.633Zm-10.814,10.285h-9.446v-6.4h9.446Z" transform="translate(-36.626 -150.629)" fill="#292f31"/>
  </g>
</svg>
