<svg id="twitter" xmlns="http://www.w3.org/2000/svg" width="20.306" height="16.498" viewBox="0 0 20.306 16.498">
  <g id="Grupo_18" data-name="Grupo 18" transform="translate(0 0)">
    <path id="Caminho_35" data-name="Caminho 35" d="M20.306,49.953a8.679,8.679,0,0,1-2.4.657,4.14,4.14,0,0,0,1.831-2.3,8.319,8.319,0,0,1-2.64,1.008,4.163,4.163,0,0,0-7.2,2.847,4.287,4.287,0,0,0,.1.949,11.783,11.783,0,0,1-8.58-4.354,4.164,4.164,0,0,0,1.279,5.564A4.111,4.111,0,0,1,.812,53.81v.046a4.182,4.182,0,0,0,3.335,4.09,4.155,4.155,0,0,1-1.091.137,3.681,3.681,0,0,1-.788-.071,4.2,4.2,0,0,0,3.89,2.9A8.364,8.364,0,0,1,1,62.687a7.8,7.8,0,0,1-1-.057A11.72,11.72,0,0,0,6.386,64.5,11.767,11.767,0,0,0,18.235,52.653c0-.184-.006-.362-.015-.538A8.3,8.3,0,0,0,20.306,49.953Z" transform="translate(0 -48)" fill="#05cb95"/>
  </g>
</svg>
