<svg xmlns="http://www.w3.org/2000/svg" width="27.289" height="27.289" viewBox="0 0 27.289 27.289">
  <g id="whatsapp" transform="translate(-1680.262 -483)">
    <g id="whatsapp-2" data-name="whatsapp" transform="translate(1375.263 -113)">
      <g id="whatsapp-3" data-name="whatsapp" transform="translate(304.999 596)">
        <path id="Caminho_926" data-name="Caminho 926" d="M139.645,56a13.642,13.642,0,0,0-11.235,21.384.683.683,0,0,1,.085.586l-1.386,4.637,4.541-1.567h0a.682.682,0,0,1,.586.074A13.649,13.649,0,1,0,139.644,56Zm-5.586,5.948,2.484,4.1-1.034,1.023h0a.682.682,0,0,0-.107.821,13.452,13.452,0,0,0,6.065,6.012.682.682,0,0,0,.757-.138l1.1-1.1,4.008,2.505a3.789,3.789,0,0,1-1.684,1.94,4.09,4.09,0,0,1-2.772.256,14.918,14.918,0,0,1-6.822-4.275,15.208,15.208,0,0,1-4.147-6.9,4.005,4.005,0,0,1,.277-2.708,3.453,3.453,0,0,1,1.876-1.546Z" transform="translate(-126 -55.999)" fill="#fff"/>
      </g>
    </g>
  </g>
</svg>
