<svg xmlns="http://www.w3.org/2000/svg" width="25.274" height="20.011" viewBox="0 0 25.274 20.011">
  <g id="financeiro" transform="translate(-28.009 -244.594)">
    <g id="carteira" transform="translate(28.018 241.002)">
      <path id="Caminho_2104" data-name="Caminho 2104" d="M18.373,10.114h2.52a.812.812,0,0,0,.741-.815V7.224H3.1a.605.605,0,0,1-.667-.593A.664.664,0,0,1,3.1,5.964H21.634v-.3a.823.823,0,0,0-.815-.815H2.067a.823.823,0,0,0-.815.815V21.528a.823.823,0,0,0,.815.815H20.818a.823.823,0,0,0,.815-.815V17.823a.812.812,0,0,0-.741-.815h-2.52A2.026,2.026,0,0,1,16.3,14.932V12.19a2.072,2.072,0,0,1,2.075-2.075Zm4.373,0h.445a2.121,2.121,0,0,1,2.075,2.075v2.742a2.072,2.072,0,0,1-2.075,2.075h-.445a3.15,3.15,0,0,1,.148.815v3.706A2.072,2.072,0,0,1,20.818,23.6H2.067A2.121,2.121,0,0,1-.008,21.528V5.667A2.121,2.121,0,0,1,2.067,3.592H20.818a2.072,2.072,0,0,1,2.075,2.075V9.3a2.667,2.667,0,0,1-.148.815Zm.445,1.26H18.373a.823.823,0,0,0-.815.815v2.742a.823.823,0,0,0,.815.815H23.19a.823.823,0,0,0,.815-.815V12.19A.823.823,0,0,0,23.19,11.374Z" fill="#05cb95"/>
      <path id="Caminho_2105" data-name="Caminho 2105" d="M506.537,235.56a1.645,1.645,0,0,1,1.631,1.631,1.583,1.583,0,0,1-1.631,1.556,1.52,1.52,0,0,1-1.556-1.556A1.583,1.583,0,0,1,506.537,235.56Zm0,1.26a.339.339,0,0,0-.3.371c0,.148.148.371.3.371a.4.4,0,0,0,.371-.371A.35.35,0,0,0,506.537,236.82Z" transform="translate(-486.757 -223.593)" fill="#05cb95"/>
    </g>
  </g>
</svg>
