<svg xmlns="http://www.w3.org/2000/svg" width="19.799" height="19.816" viewBox="0 0 19.799 19.816">
  <g id="personalizacao" transform="translate(-30.96 -283)">
    <g id="person" transform="translate(30.744 283.001)">
      <g id="Grupo_37" data-name="Grupo 37" transform="translate(0.216 -0.001)">
        <path id="Caminho_30" data-name="Caminho 30" d="M19.506.509A1.744,1.744,0,0,0,17.052.5L8.4,8.682a4.754,4.754,0,0,0-4.281,1.3,5.879,5.879,0,0,0-1.576,4.3,6.951,6.951,0,0,1-1.37,4.288L.216,19.816h1.57a15.631,15.631,0,0,0,5.726-.91,9.433,9.433,0,0,0,3.331-2.2,4.754,4.754,0,0,0,1.31-4.235l7.391-9.542A1.744,1.744,0,0,0,19.506.509ZM9.749,15.614a8.024,8.024,0,0,1-3.857,2.193,7.793,7.793,0,0,0,2.7-3.539l-1.459-.517A7.274,7.274,0,0,1,3.541,17.47a10.379,10.379,0,0,0,.546-3.089,4.454,4.454,0,0,1,1.126-3.3,3.207,3.207,0,0,1,4.536,4.536ZM11.5,10.8a4.769,4.769,0,0,0-1.5-1.489l1.259-1.191,1.39,1.2Zm6.916-8.919-.035.035L13.59,8.091,12.381,7.047l5.741-5.429.015-.015a.194.194,0,1,1,.274.274Z" transform="translate(-0.216 0.001)" fill="#05cb95"/>
      </g>
    </g>
  </g>
</svg>
