<svg xmlns="http://www.w3.org/2000/svg" width="112.566" height="18.943" viewBox="0 0 112.566 18.943">
  <g id="banrisul" transform="translate(-0.109 -0.191)">
    <path id="Caminho_2080" data-name="Caminho 2080" d="M16.681,5.667,13.623.3H7.246L10.827,5.99l5.853-.323" transform="translate(-2.135 -0.033)" fill="#00b6f1"/>
    <path id="Caminho_2081" data-name="Caminho 2081" d="M11.082,8.291l-3,4.487,2.784-.016,1.38-2.081,3.176,0,1.555-2.65-.044-.077-5.853.323.005.008v0" transform="translate(-2.384 -2.323)" fill="#006eb9"/>
    <path id="Caminho_2082" data-name="Caminho 2082" d="M23.505,17.635l.005-.011,0-.006L20.9,13.03l-6.357-.022,2.535,4.457.09.159-.006.011h6.346" transform="translate(-4.316 -3.834)" fill="#00b6f1"/>
    <path id="Caminho_2083" data-name="Caminho 2083" d="M9.778,17.689l0-.008L8.337,14.9l-2.825-.044L3.858,12.572.652,12.531l2.888,5.1h0l6.234.06" transform="translate(-0.162 -3.691)" fill="#00b6f1"/>
    <path id="Caminho_2084" data-name="Caminho 2084" d="M.109,24.841H6.437l1.539-2.363,1.76,2.363h6.311l3.143-5.232H12.843l-2.773,4.37L8.462,21.731l1.153-1.925-6.234-.06.027.049-3.3,5.046" transform="translate(0 -5.808)" fill="#006eb9"/>
    <path id="Caminho_2085" data-name="Caminho 2085" d="M155.8.191h3.447V18.406H155.8V.191" transform="translate(-46.568 0)" fill="#006eb9"/>
    <path id="Caminho_2086" data-name="Caminho 2086" d="M135.887,9.348h3.838v5.979a3.727,3.727,0,0,0,.471,2.081,1.608,1.608,0,0,0,1.426.687,1.8,1.8,0,0,0,1.646-.934,5.375,5.375,0,0,0,.561-2.735V9.348h3.849V21.2h-3.5V18.982a4.724,4.724,0,0,1-1.7,1.8,4.554,4.554,0,0,1-2.363.619,3.827,3.827,0,0,1-3.151-1.333,6.055,6.055,0,0,1-1.081-3.888V9.348" transform="translate(-40.613 -2.739)" fill="#006eb9"/>
    <path id="Caminho_2087" data-name="Caminho 2087" d="M110.715,9.047h4.274V21.055h-4.274V9.047" transform="translate(-33.084 -2.649)" fill="#006eb9"/>
    <path id="Caminho_2088" data-name="Caminho 2088" d="M104.712,9.479l-.225,3.4a2.97,2.97,0,0,0-.578-.151,5.023,5.023,0,0,0-.747-.047,4.2,4.2,0,0,0-2.842.9,4.012,4.012,0,0,0-.774,2.664v4.9H95.809V9.654h3.814v2.193a4.79,4.79,0,0,1,1.585-1.889,3.982,3.982,0,0,1,2.218-.611,10.9,10.9,0,0,1,1.2.12l.082.011" transform="translate(-28.625 -2.739)" fill="#006eb9"/>
    <path id="Caminho_2089" data-name="Caminho 2089" d="M88.11,14.261V21.07H84.463V15.118a3.927,3.927,0,0,0-.449-2.105,1.509,1.509,0,0,0-1.361-.69,1.764,1.764,0,0,0-1.533.868,4.16,4.16,0,0,0-.572,2.324V21.07H76.871V9.279h3.34v2.157A4.674,4.674,0,0,1,81.84,9.593a4.077,4.077,0,0,1,2.248-.632,3.529,3.529,0,0,1,2.992,1.35,6.452,6.452,0,0,1,1.029,3.951" transform="translate(-22.961 -2.623)" fill="#006eb9"/>
    <path id="Caminho_2090" data-name="Caminho 2090" d="M68.758,15.37v5.774H65.2l-.088-1.388a4.484,4.484,0,0,1-1.758,1.511,5.832,5.832,0,0,1-2.483.479,4.026,4.026,0,0,1-2.9-1.032,3.629,3.629,0,0,1-1.079-2.749,3.207,3.207,0,0,1,1.569-2.938,9.513,9.513,0,0,1,4.83-.958h1.6V13.91a1.708,1.708,0,0,0-.747-1.5,3.817,3.817,0,0,0-2.182-.52,6,6,0,0,0-1.6.246,13.079,13.079,0,0,0-1.933.726l-.068-2.694a10.132,10.132,0,0,1,2.163-.621,15.07,15.07,0,0,1,2.563-.205,5.66,5.66,0,0,1,4.3,1.457A6.5,6.5,0,0,1,68.758,15.37Zm-4.35.684a7.293,7.293,0,0,0-2.951.435,1.459,1.459,0,0,0-.9,1.4,1.44,1.44,0,0,0,.485,1.125,1.84,1.84,0,0,0,1.281.435,2.745,2.745,0,0,0,2.073-.838,3.021,3.021,0,0,0,.808-2.182v-.381h-.791" transform="translate(-16.985 -2.738)" fill="#006eb9"/>
    <path id="Caminho_2091" data-name="Caminho 2091" d="M35.949,2.363h6.888c2.872,0,5.867.605,5.867,4.047a4.368,4.368,0,0,1-2.949,3.91,4.084,4.084,0,0,1,3.65,4.29c0,3.847-3.778,4.528-6.913,4.528H35.949Zm3.543,2.464V8.964h1.785a5.779,5.779,0,0,0,2.784-.528,1.736,1.736,0,0,0,.92-1.613,1.631,1.631,0,0,0-.868-1.487,5.15,5.15,0,0,0-2.557-.509Zm0,7.116v4.172H41.8a5.486,5.486,0,0,0,2.732-.542,1.736,1.736,0,0,0,.931-1.582,1.675,1.675,0,0,0-.851-1.536,5.042,5.042,0,0,0-2.546-.512H39.492" transform="translate(-10.72 -0.65)" fill="#006eb9"/>
    <path id="Caminho_2092" data-name="Caminho 2092" d="M112.784,1.1a2.221,2.221,0,0,1,2.294,2.138,2.3,2.3,0,0,1-4.586,0A2.22,2.22,0,0,1,112.784,1.1" transform="translate(-33.017 -0.271)" fill="#006eb9"/>
    <path id="Caminho_2093" data-name="Caminho 2093" d="M118.684,20.042c.681-.665,1.366-1.328,2.047-1.993.734,1.268,4.811,1.892,4.791.11-.025-2.127-6.738-.572-6.163-5.232.334-2.721,3.379-3.578,4.926-3.578a6.061,6.061,0,0,1,4.09,1.432c-.592.7-1.186,1.309-1.777,2.007-.293-.52-3.85-1.593-4.217.082-.356,1.621,2.644,1.246,4.336,1.908a2.867,2.867,0,0,1,2.054,3.3c-.221,2.39-2.127,3.814-5.243,3.792a7.386,7.386,0,0,1-4.846-1.832" transform="translate(-35.467 -2.739)" fill="#006eb9"/>
  </g>
</svg>
