<svg xmlns="http://www.w3.org/2000/svg" width="23.001" height="23" viewBox="0 0 23.001 23">
  <g id="cabal" transform="translate(-6.021 -6.022)">
    <path id="Caminho_2065" data-name="Caminho 2065" d="M48.4,48.4v-23h-23v23Z" transform="translate(-19.375 -19.376)" fill="#1e447f"/>
    <path id="Caminho_2066" data-name="Caminho 2066" d="M56.754,51.429l-3.136,3.14V57.46l6.033-6.035-6.033-6.034v2.9Zm-6.906,0,3.143-3.138v-2.9l-6.038,6.037,6.038,6.038V54.57Zm-1.463,7.1h.1l-.261,1.123h-.1a1.063,1.063,0,0,0-.228-.685.7.7,0,0,0-.541-.222,1.088,1.088,0,0,0-.716.3,2.366,2.366,0,0,0-.605.942,2.787,2.787,0,0,0-.2,1.013.965.965,0,0,0,.221.685.773.773,0,0,0,.6.234,1.17,1.17,0,0,0,.569-.135,1.807,1.807,0,0,0,.517-.438h.125a2.232,2.232,0,0,1-.651.679,1.565,1.565,0,0,1-.808.195,1.39,1.39,0,0,1-1.026-.388,1.351,1.351,0,0,1-.393-1.008,2.2,2.2,0,0,1,.311-1.115,2.524,2.524,0,0,1,2.054-1.185,2.025,2.025,0,0,1,.541.094.954.954,0,0,0,.233.047.366.366,0,0,0,.261-.141Zm2.043,1.111L50.36,60.8h-.918Zm-.164,2.222a.352.352,0,0,1-.132.148,1.29,1.29,0,0,1-.262.038l-.032.1h1.531l.027-.1a.338.338,0,0,1-.236-.092.392.392,0,0,1-.075-.26c0-.029.005-.121.01-.271l.116-2.9H51.1l-2.5,2.99a2.48,2.48,0,0,1-.422.429.59.59,0,0,1-.248.1l-.026.1h1.052v-.1a.406.406,0,0,1-.221-.061.155.155,0,0,1-.063-.115.272.272,0,0,1,.024-.121.961.961,0,0,1,.108-.175l.247-.3.221-.271h1.1l-.021.45A1.161,1.161,0,0,1,50.264,61.866ZM53.923,58.8a.438.438,0,0,1,.342.121.449.449,0,0,1,.127.331.991.991,0,0,1-.124.459.78.78,0,0,1-.326.352,1.264,1.264,0,0,1-.561.111l.4-1.371Zm-1.033-.02a.178.178,0,0,1,.074.15,1.906,1.906,0,0,1-.1.442l-.625,2.174a1.483,1.483,0,0,1-.137.344.32.32,0,0,1-.149.12.82.82,0,0,1-.3.04l-.034.1h1.47a3.661,3.661,0,0,0,1.138-.122,1.107,1.107,0,0,0,.5-.383.906.906,0,0,0,.188-.53.738.738,0,0,0-.188-.5,1.417,1.417,0,0,0-.685-.355,2.761,2.761,0,0,0,.7-.234.847.847,0,0,0,.341-.322.735.735,0,0,0,.117-.384.658.658,0,0,0-.142-.41.721.721,0,0,0-.41-.241,3.158,3.158,0,0,0-.667-.052h-1.4l-.026.1a.641.641,0,0,1,.336.07l.9,1.643a.473.473,0,0,1,.226.19.58.58,0,0,1,.084.315,1.184,1.184,0,0,1-.226.693.924.924,0,0,1-.807.326c-.046,0-.111,0-.195-.008l.449-1.572a1.447,1.447,0,0,1,.468.056l-.9-1.643Zm4.654.862L57.478,60.8h-.914Zm-.164,2.222a.36.36,0,0,1-.132.148,1.234,1.234,0,0,1-.264.038l-.025.1h1.526l.028-.1a.347.347,0,0,1-.239-.092.392.392,0,0,1-.068-.26c0-.029,0-.121.005-.271l.115-2.9h-.115l-2.506,2.99a2.461,2.461,0,0,1-.416.429.622.622,0,0,1-.252.1l-.027.1h1.057v-.1a.38.38,0,0,1-.221-.061.146.146,0,0,1-.068-.115.3.3,0,0,1,.027-.121.837.837,0,0,1,.106-.175l.253-.3.221-.271h1.092l-.025.45A1.087,1.087,0,0,1,57.38,61.866Zm4.586-.709-.391.993H58.753l.027-.1a.557.557,0,0,0,.369-.1.917.917,0,0,0,.216-.44l.656-2.269a1.053,1.053,0,0,0,.053-.293.182.182,0,0,0-.08-.167.535.535,0,0,0-.305-.074l.033-.1h1.694l-.029.1a.546.546,0,0,0-.365.111.9.9,0,0,0-.216.424l-.6,2.077a2.979,2.979,0,0,0-.115.482.134.134,0,0,0,.058.1.348.348,0,0,0,.192.047,1.879,1.879,0,0,0,.834-.2,1.765,1.765,0,0,0,.68-.592Z" transform="translate(-35.79 -36.127)" fill="#fff"/>
  </g>
</svg>
