<svg xmlns="http://www.w3.org/2000/svg" width="39.798" height="22.85" viewBox="0 0 39.798 22.85">
  <g id="goodcard" transform="translate(-1.874 -1.649)">
    <path id="Caminho_2070" data-name="Caminho 2070" d="M55.345,10.075,54.023,23.812s-.283,2.125-3.163,2.077S16.113,25.8,16.113,25.8l1.133-13.219a3,3,0,0,1,3.21-2.549C23.383,10.027,55.345,10.075,55.345,10.075Zm0,0" transform="translate(-13.673 -8.378)" fill="#06376c"/>
    <path id="Caminho_2071" data-name="Caminho 2071" d="M41.176,40.832l3.845-.023-.661,5.8s-6.793,1.911-8.421-2.053,1.651-8.42,6.18-8.161c0,0,2.477.212,2.878.354L44.974,39.2a8.4,8.4,0,0,0-2.736-.5A3.6,3.6,0,0,0,38.7,41.8c-.59,2.547,1.816,3.208,3.113,2.783l.118-1.51H40.846Zm0,0" transform="translate(-30.749 -31.577)" fill="#fff"/>
    <path id="Caminho_2072" data-name="Caminho 2072" d="M118.9,56.263a6.092,6.092,0,0,1,2.241.259A3.164,3.164,0,0,1,123,58.952c.189,1.274-.33,3.538-1.062,4.2a4.38,4.38,0,0,1-3.8,1.368c-2.17-.165-3.373-1.981-3.019-4.293A4.327,4.327,0,0,1,118.9,56.263Zm.735,2.205a.869.869,0,0,1,.586.7,4.394,4.394,0,0,1-.141,2.265c-.283.519-.778,1.179-1.7.849s-.425-2.69-.259-3S118.484,58.115,119.634,58.468Zm0,0" transform="translate(-100.759 -49.06)" fill="#fff"/>
    <path id="Caminho_2073" data-name="Caminho 2073" d="M186.769,56.655a6.1,6.1,0,0,1,2.241.259,3.161,3.161,0,0,1,1.863,2.429c.189,1.274-.33,3.539-1.061,4.2a4.381,4.381,0,0,1-3.8,1.368c-2.17-.165-3.373-1.982-3.019-4.293A4.328,4.328,0,0,1,186.769,56.655Zm.734,2.205a.869.869,0,0,1,.586.7,4.392,4.392,0,0,1-.142,2.264c-.283.519-.778,1.179-1.7.849s-.425-2.689-.259-3S186.354,58.506,187.5,58.86Zm0,0" transform="translate(-160.491 -49.405)" fill="#fff"/>
    <path id="Caminho_2074" data-name="Caminho 2074" d="M255.45,42.738l-.354,2.831s-.4,1.274-1.345,1.132-1.109-1.58-.684-2.5S254.059,42.455,255.45,42.738Zm.354-2.052.213-2.241,2.712.023-1.391,10.167h-2.595l.024-.472a3.1,3.1,0,0,1-2.17.731c-1.51.023-2.689-1.251-2.547-3.4a5.012,5.012,0,0,1,3.656-4.741,5.182,5.182,0,0,1,1.25-.118C255.45,40.686,255.8,40.686,255.8,40.686Zm0,0" transform="translate(-219.548 -33.389)" fill="#fff"/>
    <path id="Caminho_2075" data-name="Caminho 2075" d="M11.387,154.853H47.739a2.223,2.223,0,0,0,1.463-1.747c.095-1.274.472-4.485.472-4.485l-35.785.047a2.1,2.1,0,0,0-2.171,2.077C11.529,152.917,11.387,154.853,11.387,154.853Zm0,0" transform="translate(-9.513 -130.354)" fill="#f5ae00"/>
    <path id="Caminho_2076" data-name="Caminho 2076" d="M280.4,159.629l-.156,1.247s-.177.561-.592.5-.489-.7-.3-1.1S279.784,159.5,280.4,159.629Zm.156-.9.094-.987,1.195.01-.613,4.479h-1.143l.01-.208a1.364,1.364,0,0,1-.956.322c-.665.01-1.185-.551-1.123-1.5a2.21,2.21,0,0,1,1.611-2.089,2.275,2.275,0,0,1,.551-.052C280.4,158.725,280.553,158.725,280.553,158.725Zm0,0" transform="translate(-244.17 -138.378)" fill="#06376c"/>
    <path id="Caminho_2077" data-name="Caminho 2077" d="M257.939,165.989l-.33,3.3,1.262.012s-.246-2.565,1.227-2.359l.177-1.027a1.921,1.921,0,0,0-1.179.5l.094-.412Zm0,0" transform="translate(-226.213 -145.577)" fill="#06376c"/>
    <path id="Caminho_2078" data-name="Caminho 2078" d="M232.317,168.065s.154.672-.378.767-.542-.165-.472-.33A1.264,1.264,0,0,1,232.317,168.065Zm-1.12-1.805-.236.944a3.33,3.33,0,0,1,1.356-.247c.437.106.047.436-.307.519a3.288,3.288,0,0,0-1.415.625c-.2.283-.342,1.073.165,1.309a2.5,2.5,0,0,0,1.392-.024l.023.118,1.168-.023.342-2.736a.647.647,0,0,0-.66-.614A9.878,9.878,0,0,0,231.2,166.26Zm0,0" transform="translate(-202.277 -145.754)" fill="#06376c"/>
    <path id="Caminho_2079" data-name="Caminho 2079" d="M204,158.1l-.083,1a2.828,2.828,0,0,0-1.746-.012c-.814.319-.8,1.71-.5,2.052a2.024,2.024,0,0,0,1.8.212l-.024.991s-2.382.507-3.007-.684a2.4,2.4,0,0,1,.778-3.244A4.69,4.69,0,0,1,204,158.1Zm0,0" transform="translate(-175.638 -138.635)" fill="#06376c"/>
  </g>
</svg>
