<svg xmlns="http://www.w3.org/2000/svg" width="20" height="20" viewBox="0 0 20 20">
  <path id="produto" d="M140.192,52.5H124.808a2.31,2.31,0,0,0-2.308,2.308V70.192a2.31,2.31,0,0,0,2.308,2.308h15.385a2.31,2.31,0,0,0,2.308-2.308V54.808a2.31,2.31,0,0,0-2.308-2.308Zm-10,1.538h4.615v4.645c-2.781-2.063-1.84-2.055-4.615,0Zm10.769,16.154a.77.77,0,0,1-.769.769H124.808a.77.77,0,0,1-.769-.769V54.808a.77.77,0,0,1,.769-.769h3.846v6.194a.775.775,0,0,0,1.234.613l2.612-1.982,2.612,1.983h0a.775.775,0,0,0,1.234-.613V54.038h3.846a.77.77,0,0,1,.769.769Z" transform="translate(-122.5 -52.5)" fill="#292f31"/>
</svg>
