<svg xmlns="http://www.w3.org/2000/svg" width="21.863" height="16.323" viewBox="0 0 21.863 16.323">
  <g id="capacete" transform="translate(-29.754 -208.867)">
    <g id="capacete-2" data-name="capacete" transform="translate(-56.719 125.613)">
      <path id="Caminho_2057" data-name="Caminho 2057" d="M105.962,99.576H91.784a3.051,3.051,0,0,1-.953-.153,2.984,2.984,0,0,1-.853-.446,8.709,8.709,0,0,1-3.5-7.07v-.04a8.633,8.633,0,0,1,2.685-6.132A8.9,8.9,0,0,1,95.4,83.254h.041a13.76,13.76,0,0,1,5.456,1.107,8.2,8.2,0,0,1,3.666,3.067l.019.03s.353.633.487.936l2.313,4.648.7,2.007a4.749,4.749,0,0,1,.069,2.895,2.273,2.273,0,0,1-2.181,1.632ZM95.155,90.724a.241.241,0,1,0-.07.17A.24.24,0,0,0,95.155,90.724Zm.932-1.173a1.661,1.661,0,0,1,.222.275q-.018-.238-.019-.48A1.617,1.617,0,0,1,97.9,87.734v0h5.154a7.063,7.063,0,0,0-2.745-2.085,12.341,12.341,0,0,0-4.89-.985h-.036a7.488,7.488,0,0,0-5.246,2.088,7.224,7.224,0,0,0-2.253,5.129v.035a7.312,7.312,0,0,0,2.939,5.929,1.564,1.564,0,0,0,.449.23,1.629,1.629,0,0,0,.51.081h14.178a.86.86,0,0,0,.824-.613,3.326,3.326,0,0,0-.037-2.009H102.48a6.185,6.185,0,0,1-4.375-1.814h0a6.216,6.216,0,0,1-1.567-2.651,1.66,1.66,0,1,1-.449-1.521Zm7.771-.4h-2.339l2.469,4.967h2.268l-.17-.49Zm-3.919,0h-.8l2.427,4.882a4.821,4.821,0,0,0,.838.085Zm-2.229.3a4.722,4.722,0,0,0,1.4,3.275v0a4.818,4.818,0,0,0,.418.372Z" transform="translate(0 0)" fill="#fff" fill-rule="evenodd"/>
    </g>
  </g>
</svg>
