<svg xmlns="http://www.w3.org/2000/svg" width="14.376" height="14.376" viewBox="0 0 14.376 14.376">
  <g id="dinheiro" transform="translate(-1.554 -1.554)">
    <path id="Caminho_87" data-name="Caminho 87" d="M9.188,16.376a7.188,7.188,0,1,1,7.188-7.188A7.188,7.188,0,0,1,9.188,16.376Zm0-1.438A5.751,5.751,0,1,0,3.438,9.188,5.751,5.751,0,0,0,9.188,14.939ZM6.672,10.626h3.953a.359.359,0,0,0,0-.719H7.751a1.8,1.8,0,1,1,0-3.594h.719V4.875H9.907V6.313h1.8V7.751H7.751a.359.359,0,1,0,0,.719h2.875a1.8,1.8,0,1,1,0,3.594H9.907V13.5H8.469V12.063h-1.8Z" transform="translate(-0.446 -0.446)" fill="#195b49"/>
  </g>
</svg>
