<svg xmlns="http://www.w3.org/2000/svg" width="70.001" height="70.005" viewBox="0 0 70.001 70.005">
  <g id="pedidos-esquecidos" transform="translate(-87.501 -17.505)">
    <path id="Caminho_2136" data-name="Caminho 2136" d="M140.827,342.993h-2.1a5.864,5.864,0,0,1-5.775-5.008l-3.136-21.991a1.168,1.168,0,0,0-2.311.331l3.141,21.989a8.208,8.208,0,0,0,8.081,7.011h2.1a1.167,1.167,0,1,0,0-2.333Z" transform="translate(-34.66 -257.822)" fill="#c8c8c8"/>
    <path id="Caminho_2137" data-name="Caminho 2137" d="M324.917,361.667a1.167,1.167,0,0,0-1.167,1.167V367.5a3.5,3.5,0,1,0,7,0v-14a3.5,3.5,0,1,0-7,0v4.667a1.167,1.167,0,1,0,2.333,0V353.5a1.167,1.167,0,0,1,2.333,0v14a1.167,1.167,0,0,1-2.333,0v-4.667a1.167,1.167,0,0,0-1.167-1.167Z" transform="translate(-204.749 -288.162)" fill="#c8c8c8"/>
    <path id="Caminho_2138" data-name="Caminho 2138" d="M187.25,350a3.5,3.5,0,0,0-3.5,3.5v14a3.5,3.5,0,1,0,7,0v-14a3.5,3.5,0,0,0-3.5-3.5Zm1.167,17.5a1.167,1.167,0,0,1-2.333,0v-14a1.167,1.167,0,0,1,2.333,0Z" transform="translate(-83.416 -288.162)" fill="#c8c8c8"/>
    <path id="Caminho_2139" data-name="Caminho 2139" d="M253.75,353.5v14a3.5,3.5,0,1,0,7,0v-14a3.5,3.5,0,1,0-7,0Zm4.667,0v14a1.167,1.167,0,0,1-2.333,0v-14a1.167,1.167,0,0,1,2.333,0Z" transform="translate(-144.082 -288.162)" fill="#c8c8c8"/>
    <path id="Caminho_2140" data-name="Caminho 2140" d="M411.833,317.333a1.167,1.167,0,1,0,0-2.333h-8.167a1.167,1.167,0,1,0,0,2.333Z" transform="translate(-272.999 -257.829)" fill="#c8c8c8"/>
    <path id="Caminho_2141" data-name="Caminho 2141" d="M190.167,315h-14a1.167,1.167,0,1,0,0,2.333h14a1.167,1.167,0,1,0,0-2.333Z" transform="translate(-75.832 -257.829)" fill="#c8c8c8"/>
    <path id="Caminho_2142" data-name="Caminho 2142" d="M152.746,65.381a5.818,5.818,0,0,0,2.421-4.71A1.167,1.167,0,0,0,154,59.5h-1.983l.667-4.667H154a3.5,3.5,0,1,0,0-7h-7.266l.983-2.245h0a4.5,4.5,0,0,0,2.782.947,4.673,4.673,0,0,0,4.508-3.459,4.459,4.459,0,0,0,.149-1.373,4.636,4.636,0,0,0,.791-7.491,6.888,6.888,0,0,0,.651-1.581,7.038,7.038,0,0,0-1.762-6.712,1.167,1.167,0,1,0-1.668,1.633,4.656,4.656,0,0,1-1.718,7.637,1.166,1.166,0,0,0-.763,1.065,3.394,3.394,0,0,1-.106.806,3.487,3.487,0,0,1-6.732.039c0-.009-.011-.016-.015-.027a3.5,3.5,0,0,1,1.614-3.951,1.167,1.167,0,0,0-1.167-2.021,5.843,5.843,0,0,0-2.882,5.526,3.293,3.293,0,0,1-1.571-.032,3.441,3.441,0,0,1-2.217-1.848c-.008-.018-.026-.028-.035-.044a3.473,3.473,0,0,1-.34-1.565A1.167,1.167,0,0,0,136.1,31.95a1.193,1.193,0,0,0-1.191,1.141,5.86,5.86,0,0,0,.2,1.6,3.381,3.381,0,0,1-2.032.093,3.458,3.458,0,0,1-1.82-1.2l-.007-.014-.008-.007h0a3.463,3.463,0,0,1,1.882-5.532,1.167,1.167,0,0,0,.864-.949l.03-.223a2.148,2.148,0,0,1,.042-.265A4.657,4.657,0,0,1,137.4,23.3a6.943,6.943,0,0,0,.824,4.7,1.167,1.167,0,1,0,2.02-1.167,4.638,4.638,0,0,1-.168-4.33l.006-.009a4.654,4.654,0,0,1,8.841,2.4,1.167,1.167,0,0,0,2.324.2,6.986,6.986,0,0,0-12.9-4.286A6.991,6.991,0,0,0,131.808,26v.02a5.777,5.777,0,0,0-2.954,8.119,4.557,4.557,0,0,0-.633,1l-1-2.123a6.545,6.545,0,0,0-3.957-3.448,6.418,6.418,0,0,0-.963-.214l-.383-6.239a1.169,1.169,0,0,0-2.333.14l.369,6.156h0a6.461,6.461,0,0,0-1.114.35l-1.588-5.575a1.167,1.167,0,0,0-2.245.642l.04.137-.1-.1h0a1.168,1.168,0,0,0-1.65-.028l-3.457,3.344a1.167,1.167,0,0,0,.168,1.813l5.215,3.443a6.263,6.263,0,0,0-.3.94,6.5,6.5,0,0,0-.131,1.99,10.543,10.543,0,0,0-4.667,2.12l-.8-.8a1.167,1.167,0,0,0-1.65,1.65l.081.081h0a5.834,5.834,0,0,0-4.109,3.629l-.134.357-2.784-.964h0a1.167,1.167,0,1,0-.763,2.2l23.451,8.118a1.167,1.167,0,0,1-.763,2.206L91.787,44.274a1.167,1.167,0,0,1-.13-2.154,1.152,1.152,0,0,1,.891-.054l3.006,1.041h0a1.167,1.167,0,1,0,.764-2.2l-3.008-1.041a3.5,3.5,0,1,0-2.287,6.615l3.925,1.359H91a3.5,3.5,0,1,0,0,7H115.17l6.723,2.328a3.5,3.5,0,1,0,2.289-6.615l-1.1-.379H154a1.167,1.167,0,1,1,0,2.333H130.029a1.167,1.167,0,1,0,0,2.333h20.3L149.6,59.9a5.794,5.794,0,0,0-1.75,1.063l.021-.168h0a3.221,3.221,0,0,0-.783-2.534,3.33,3.33,0,0,0-4.837,0,3.219,3.219,0,0,0-.783,2.534l.428,3.424c-.25-.021-.494-.05-.733-.05a9.28,9.28,0,0,0-5.833,2.059v-.893a3.5,3.5,0,1,0-7,0v14a3.487,3.487,0,0,0,5.871,2.558,15.105,15.105,0,0,0,2.3,3.275H110.835a1.167,1.167,0,1,0,0,2.333h30.1a1.086,1.086,0,0,0,.117,0c.042,0,.085.006.117.006a9.206,9.206,0,0,0,3.5-.688,9.215,9.215,0,0,0,3.5.682c2.1,0,4.156-1.369,5.937-3.957a1.167,1.167,0,1,0-1.923-1.322c-1.306,1.9-2.73,2.946-4.014,2.946a6.932,6.932,0,0,1-3-.682,1.163,1.163,0,0,0-1,0,6.935,6.935,0,0,1-2.974.682c-.031,0-.06-.006-.091-.007-3.517-.092-6.933-7.4-6.933-11.66a7.006,7.006,0,0,1,7-7,6.535,6.535,0,0,1,1.023.09l.008.065h0a2.489,2.489,0,0,0,4.938,0l.008-.064a6.476,6.476,0,0,1,1.023-.091,7.006,7.006,0,0,1,7,7,15.026,15.026,0,0,1-1.008,4.818,1.167,1.167,0,1,0,2.19.8A17.136,17.136,0,0,0,157.5,73.5a9.334,9.334,0,0,0-4.754-8.123ZM91,52.5a1.167,1.167,0,0,1,0-2.333h10.688L108.43,52.5Zm61.834-14.836a5.534,5.534,0,0,0,.117-.589,7.029,7.029,0,0,0,1.533-1.05,2.318,2.318,0,0,1-.964,3.857,1.167,1.167,0,0,0-.782,1.407,2.3,2.3,0,0,1,.009,1.183,2.334,2.334,0,0,1-2.858,1.649,2.269,2.269,0,0,1-1.191-.78l.805-1.836a5.885,5.885,0,0,0,.608-.3,5.8,5.8,0,0,0,2.723-3.54Zm-6.076,4.3-2.589,5.874h-7.35l.264-.985a1.164,1.164,0,0,0,.017-.531l-1.853-9.236a5.91,5.91,0,0,0,.905-.285,5.8,5.8,0,0,0,2.364,1.8l1.439,7.03a1.167,1.167,0,0,0,1,.924,1.237,1.237,0,0,0,.139.008,1.167,1.167,0,0,0,1.056-.667l2.2-4.661a5.3,5.3,0,0,0,2.4.732Zm-4.7-3.075a5.87,5.87,0,0,0,.482.728l-1,2.114-.552-2.7h0a5.72,5.72,0,0,0,1.068-.143Zm-9.184-1.772.419,2.085a2.277,2.277,0,0,1-1.431.095,2.334,2.334,0,0,1-1.649-2.858,2.268,2.268,0,0,1,.192-.42,5.769,5.769,0,0,0,2.061,1.024c.135.036.273.048.408.074Zm-1.616,4.433a4.656,4.656,0,0,0,1.2.159,4.591,4.591,0,0,0,1.3-.2l1,5.005-.355,1.324H134.2l-2.97-6.3Zm.358,6.289h-2.3a1.19,1.19,0,0,0,.233-.094l1.6-.922Zm-8.01-15.528-1.221.7h0a1.167,1.167,0,1,0,1.167,2.02l1.6-.922,1.5,3.177-1.344.776h0a1.167,1.167,0,1,0,1.167,2.02l1.176-.678,2.5,5.294-1.765,1.02h0a1.16,1.16,0,0,0,.233,2.115h-4.067l-1.283-1.854,2.944-1.7h0a1.167,1.167,0,0,0-1.167-2.022l-3.119,1.8-2-2.884,2.349-1.359A1.167,1.167,0,0,0,121.1,37.8l-2.523,1.457-.734-1.059a4.184,4.184,0,0,1,5.765-5.883Zm-11.1-3.466,1.574-1.517,2.333,2.408.386,1.35a4.47,4.47,0,0,0-.35.36Zm-6.671,15.012a3.488,3.488,0,0,1,3.341-2.274l-.339.905h0a3.441,3.441,0,0,1-2.084,2.03l-1.032-.357Zm3.727,1.633a5.78,5.78,0,0,0,1.461-2.184l.173-.467a1.167,1.167,0,0,0,1.633-1.661l-1.022-1.022h0a8,8,0,0,1,3.617-1.517,6.38,6.38,0,0,0,.506.887l5.774,8.314h-5.354ZM133,79.338a1.167,1.167,0,1,1-2.333,0v-14a1.167,1.167,0,1,1,2.333,0V69a9.256,9.256,0,0,0-1.167,4.508,17.643,17.643,0,0,0,1.217,5.833Zm18.667-17.5h.967a3.506,3.506,0,0,1-3.3,2.333h-.967a3.506,3.506,0,0,1,3.3-2.333Zm-7.154,4.531-.732-5.861a.893.893,0,1,1,1.773,0l-.733,5.86h0a.16.16,0,0,1-.308,0Z" transform="translate(0)" fill="#c8c8c8"/>
    <path id="Caminho_2143" data-name="Caminho 2143" d="M543.616,403.257a1.167,1.167,0,0,0-1.092,2.063,3.184,3.184,0,0,1,1.507,1.732,1.167,1.167,0,1,0,2.192-.8A5.516,5.516,0,0,0,543.616,403.257Z" transform="translate(-393.815 -334.2)" fill="#c8c8c8"/>
  </g>
</svg>
