<svg xmlns="http://www.w3.org/2000/svg" width="31.848" height="29.375" viewBox="0 0 31.848 29.375">
  <g id="imprimir" transform="translate(0 -9.633)">
    <path id="Caminho_748" data-name="Caminho 748" d="M29.6,16.42H26.034V10.6a.963.963,0,0,0-.963-.963H6.777a.963.963,0,0,0-.963.963V16.42H2.247A2.249,2.249,0,0,0,0,18.667V31.022a2.249,2.249,0,0,0,2.247,2.247H5.814v4.777a.963.963,0,0,0,.963.963H25.071a.963.963,0,0,0,.963-.963V33.268H29.6a2.249,2.249,0,0,0,2.247-2.247V18.667A2.249,2.249,0,0,0,29.6,16.42ZM7.74,11.559H24.108V16.42H7.74ZM24.108,37.082H7.74V27.529H24.108Zm5.814-6.06a.325.325,0,0,1-.321.321H26.034V26.566a.963.963,0,0,0-.963-.963H6.777a.963.963,0,0,0-.963.963v4.776H2.247a.325.325,0,0,1-.321-.321V18.667a.325.325,0,0,1,.321-.321H29.6a.325.325,0,0,1,.321.321V31.022Z" fill="#292f31"/>
    <circle id="Elipse_50" data-name="Elipse 50" cx="1.37" cy="1.37" r="1.37" transform="translate(23.701 20.605)" fill="#292f31"/>
    <path id="Caminho_749" data-name="Caminho 749" d="M92.132,163.822H83.37a.963.963,0,1,0,0,1.926h8.762a.963.963,0,1,0,0-1.926Z" transform="translate(-71.827 -134.393)" fill="#292f31"/>
    <path id="Caminho_750" data-name="Caminho 750" d="M92.132,193.623H83.37a.963.963,0,0,0,0,1.926h8.762a.963.963,0,1,0,0-1.926Z" transform="translate(-71.827 -160.367)" fill="#292f31"/>
  </g>
</svg>
