<svg xmlns="http://www.w3.org/2000/svg" width="17.33" height="17.33" viewBox="0 0 17.33 17.33">
  <g id="check" transform="translate(-157.497 -87.5)">
    <path id="Caminho_2190" data-name="Caminho 2190" d="M166.162,87.5a8.665,8.665,0,1,0,6.127,2.538A8.665,8.665,0,0,0,166.162,87.5Zm0,15.754a7.089,7.089,0,1,1,5.013-2.076A7.09,7.09,0,0,1,166.162,103.254Z" transform="translate(0)" fill="#292f31"/>
    <path id="Caminho_2191" data-name="Caminho 2191" d="M260.995,210.156l-4.167,4.175-1.8-1.812a.791.791,0,0,0-1.119,1.119L256.269,216a.788.788,0,0,0,1.119,0l4.726-4.726a.791.791,0,0,0-1.119-1.119Z" transform="translate(-91.848 -116.913)" fill="#292f31"/>
  </g>
</svg>
