<svg xmlns="http://www.w3.org/2000/svg" width="39.492" height="36" viewBox="0 0 39.492 36">
  <g id="especial" transform="translate(-113.782 -64.656)">
    <path id="Caminho_2192" data-name="Caminho 2192" d="M152.8,77.8c-.045-.06-.094-.119-.144-.175a2.352,2.352,0,0,0-1.746-.773h-4.444l-7.934-11.583a1.406,1.406,0,1,0-2.321,1.589l6.845,9.993h-19.71l6.845-9.993a1.406,1.406,0,1,0-2.321-1.589l-7.933,11.583h-3.8a2.346,2.346,0,0,0-.918.185c-.071.03-.139.063-.206.1s-.132.076-.194.118a2.367,2.367,0,0,0-.855,1.038,2.226,2.226,0,0,0-.079.217c-.023.074-.042.149-.058.226a2.225,2.225,0,0,0-.036.234c-.008.079-.012.16-.012.241v3.062a2.359,2.359,0,0,0,2.359,2.359h1.377l.355,1.8.066.333,2.211,11.219a3.456,3.456,0,0,0,3.248,2.67h20.261a3.455,3.455,0,0,0,3.248-2.67l2.632-13.357h1.377a2.359,2.359,0,0,0,2.359-2.359V79.209a2.355,2.355,0,0,0-.47-1.411Zm-24.72,17.89a1.452,1.452,0,0,1-2.9,0V89.92a1.452,1.452,0,0,1,2.9,0Zm4.6,0a1.452,1.452,0,1,1-2.9,0V89.92a1.452,1.452,0,0,1,2.9,0Zm4.6,0a1.452,1.452,0,1,1-2.9,0V89.92a1.452,1.452,0,0,1,2.9,0Zm4.6,0a1.452,1.452,0,1,1-2.9,0V89.92a1.452,1.452,0,0,1,2.9,0Z" fill="#292f31"/>
  </g>
</svg>
