<svg xmlns="http://www.w3.org/2000/svg" width="38.77" height="36" viewBox="0 0 38.77 36">
  <g id="pro" transform="translate(-104.995 -52.5)">
    <path id="Caminho_2196" data-name="Caminho 2196" d="M508.09,247.769h5.486V245h-7Z" transform="translate(-369.811 -177.269)"/>
    <path id="Caminho_2197" data-name="Caminho 2197" d="M265.074,162.346v.692h6.549a6.93,6.93,0,0,1,.8-1.694,5.541,5.541,0,0,0-7.553-3.354,6.293,6.293,0,0,1,.2,1.587,2.068,2.068,0,0,1-.531,1.385,2.068,2.068,0,0,1,.531,1.385Z" transform="translate(-146.925 -96.693)"/>
    <path id="Caminho_2198" data-name="Caminho 2198" d="M381.219,184.982a5.539,5.539,0,0,0-8.613,2.233h10.269A5.575,5.575,0,0,0,381.219,184.982Z" transform="translate(-246.437 -120.868)"/>
    <path id="Caminho_2199" data-name="Caminho 2199" d="M303.778,79.546q.215-.207.448-.4h0a6.925,6.925,0,0,1,10.955,3.31h1.7a2.769,2.769,0,1,0-.607-5.471.692.692,0,0,1-.692-1.108,2.738,2.738,0,0,0,.607-1.729,2.769,2.769,0,0,0-4.824-1.857.693.693,0,0,1-1.126-.142A4.228,4.228,0,0,0,306.5,70a4.107,4.107,0,0,0-3.972,2.69.692.692,0,0,1-.978.393,2.735,2.735,0,0,0-1.281-.314,2.772,2.772,0,0,0-2.769,2.769,6.922,6.922,0,0,1,6.28,4.009Z" transform="translate(-177.272 -16.113)"/>
    <path id="Caminho_2200" data-name="Caminho 2200" d="M539.337,297.5h-4.119l3.351,6.144Z" transform="translate(-396.183 -225.615)"/>
    <path id="Caminho_2201" data-name="Caminho 2201" d="M222.356,245.752a.692.692,0,0,1,.276.939l-.591,1.083h18.32l-.606-1.112a.692.692,0,0,1,.276-.939l1.317-.718H220.987Z" transform="translate(-106.814 -177.274)"/>
    <path id="Caminho_2202" data-name="Caminho 2202" d="M163.038,53.192a.693.693,0,0,0-.692-.692h-4.154a.693.693,0,0,0-.692.692v.692h5.538Z" transform="translate(-48.351)"/>
    <path id="Caminho_2203" data-name="Caminho 2203" d="M140.942,210.692a.693.693,0,0,0-.692-.692h-8.308a.693.693,0,0,0-.692.692v.692h9.692Z" transform="translate(-24.178 -145.038)"/>
    <path id="Caminho_2204" data-name="Caminho 2204" d="M112.007,245h-7.012v2.769h5.5Z" transform="translate(0 -177.269)"/>
    <path id="Caminho_2205" data-name="Caminho 2205" d="M163.81,90.269h4.54a6.259,6.259,0,0,1-.869-2.769h-2.8a6.259,6.259,0,0,1-.869,2.769Z" transform="translate(-54.162 -32.231)"/>
    <path id="Caminho_2206" data-name="Caminho 2206" d="M116.863,297.5h-4.135l.771,6.167Z" transform="translate(-7.121 -225.615)"/>
    <path id="Caminho_2207" data-name="Caminho 2207" d="M162.382,300.886v3.538a.692.692,0,0,1-1.385,0V300.27a.692.692,0,0,1,.671-.691l-1.133-2.078H140.706l-1.134,2.079a.692.692,0,0,1,.656.69v4.154a.692.692,0,1,1-1.385,0v-3.509l-5.1,9.349a2.072,2.072,0,0,1-.262.375l.295,2.358a1.345,1.345,0,0,0,1.376,1.12h30.921A1.346,1.346,0,0,0,167.45,313l.3-2.383a2.078,2.078,0,0,1-.266-.378Zm-24.923,10.461a.692.692,0,1,1-1.385,0v-4.154a.692.692,0,1,1,1.385,0Zm2.769,0a.692.692,0,1,1-1.385,0v-4.154a.692.692,0,1,1,1.385,0Zm2.769,0a.692.692,0,1,1-1.385,0v-4.154a.692.692,0,1,1,1.385,0Zm0-6.923a.692.692,0,0,1-1.385,0V300.27a.692.692,0,1,1,1.385,0Zm2.769,6.923a.692.692,0,1,1-1.385,0v-4.154a.692.692,0,1,1,1.385,0Zm0-6.923a.692.692,0,0,1-1.385,0V300.27a.692.692,0,1,1,1.385,0Zm2.769,6.923a.692.692,0,1,1-1.385,0v-4.154a.692.692,0,1,1,1.385,0Zm0-6.923a.692.692,0,0,1-1.385,0V300.27a.692.692,0,1,1,1.385,0Zm2.769,6.923a.692.692,0,1,1-1.385,0v-4.154a.692.692,0,1,1,1.385,0Zm0-6.923a.692.692,0,0,1-1.385,0V300.27a.692.692,0,1,1,1.385,0Zm2.769,6.923a.692.692,0,1,1-1.385,0v-4.154a.692.692,0,1,1,1.385,0Zm0-6.923a.692.692,0,0,1-1.385,0V300.27a.692.692,0,1,1,1.385,0Zm2.769,6.923a.692.692,0,1,1-1.385,0v-4.154a.692.692,0,1,1,1.385,0Zm0-6.923a.692.692,0,0,1-1.385,0V300.27a.692.692,0,1,1,1.385,0Zm2.769,6.923a.692.692,0,1,1-1.385,0v-4.154a.692.692,0,1,1,1.385,0Zm0-6.923a.692.692,0,0,1-1.385,0V300.27a.692.692,0,1,1,1.385,0Zm2.769,6.923a.692.692,0,1,1-1.385,0v-4.154a.692.692,0,1,1,1.385,0Zm2.769,0a.692.692,0,1,1-1.385,0v-4.154a.692.692,0,1,1,1.385,0Z" transform="translate(-26.233 -225.616)"/>
    <path id="Caminho_2208" data-name="Caminho 2208" d="M478.969,256.87l-1.216.663,7.976,14.623a.692.692,0,1,0,1.215-.663Z" transform="translate(-343.265 -188.2)"/>
    <path id="Caminho_2209" data-name="Caminho 2209" d="M113.064,257.24l-7.976,14.623a.693.693,0,0,0,.276.939.692.692,0,0,0,.939-.276L114.28,257.9Z" transform="translate(-0.008 -188.541)"/>
    <path id="Caminho_2210" data-name="Caminho 2210" d="M131.942,144.154h8.308a.693.693,0,0,0,.692-.692A4.8,4.8,0,0,0,139.484,140h-6.777a4.8,4.8,0,0,0-1.458,3.462A.693.693,0,0,0,131.942,144.154Z" transform="translate(-24.177 -80.577)"/>
  </g>
</svg>
