<svg xmlns="http://www.w3.org/2000/svg" width="35.062" height="35.999" viewBox="0 0 35.062 35.999">
  <path id="startup" d="M129.3,43.966l-4.243-25.457a1.2,1.2,0,0,0-1.183-1h-24a1.2,1.2,0,0,0-1.183,1L94.45,43.966a7.8,7.8,0,0,0,2.174,6.78l.48.48a7.734,7.734,0,0,0,5.5,2.28h18.545a7.734,7.734,0,0,0,5.5-2.28l.48-.48a7.8,7.8,0,0,0,2.17-6.78Zm-17.426-10.86a9.611,9.611,0,0,1-9.6-9.6,1.2,1.2,0,1,1,2.4,0,7.2,7.2,0,1,0,14.4,0,1.2,1.2,0,1,1,2.4,0,9.611,9.611,0,0,1-9.6,9.6Z" transform="translate(-94.346 -17.507)" fill="#292f31"/>
</svg>
