<svg xmlns="http://www.w3.org/2000/svg" width="38.467" height="36" viewBox="0 0 38.467 36">
  <g id="super" transform="translate(-151.201 -95.762)">
    <path id="Caminho_2193" data-name="Caminho 2193" d="M186.105,142.8H155.037l-3.836,4.384a4.1,4.1,0,0,0,7.891,1.589,4.145,4.145,0,0,0,3.781,2.521,4.087,4.087,0,0,0,3.781-2.521,4.145,4.145,0,0,0,3.781,2.521,4.087,4.087,0,0,0,3.781-2.521A4.145,4.145,0,0,0,178,151.293a4.087,4.087,0,0,0,3.781-2.521,4.1,4.1,0,0,0,7.891-1.589Z" transform="translate(0 -42.435)" fill="#292f31"/>
    <path id="Caminho_2194" data-name="Caminho 2194" d="M191.52,95.762h30.9v2.521h-30.9Z" transform="translate(-36.374)" fill="#292f31"/>
    <path id="Caminho_2195" data-name="Caminho 2195" d="M219.893,259.28h-26.9a2.023,2.023,0,0,0-2.027,2.027v15.945a2.023,2.023,0,0,0,2.027,2.027h16.6V264.1h7.891V279.28h2.356a2.023,2.023,0,0,0,2.027-2.027V261.307a1.977,1.977,0,0,0-1.973-2.027Zm-13.425,12.767H194.742V264.1h11.726Z" transform="translate(-35.87 -147.518)" fill="#292f31"/>
  </g>
</svg>
