<svg xmlns="http://www.w3.org/2000/svg" width="39.424" height="39.424" viewBox="0 0 39.424 39.424">
  <g id="quilometro" transform="translate(-70.002)">
    <path id="Caminho_2349" data-name="Caminho 2349" d="M75.751,0A5.756,5.756,0,0,0,70,5.749c0,2.894,4.553,9.572,5.073,10.322a.823.823,0,0,0,1.354,0c.519-.752,5.072-7.428,5.072-10.322A5.756,5.756,0,0,0,75.751,0Zm0,8.214A2.464,2.464,0,1,1,78.215,5.75,2.465,2.465,0,0,1,75.751,8.214Z" fill="#888b8b"/>
    <path id="Caminho_2350" data-name="Caminho 2350" d="M207.216,234.607a17.325,17.325,0,0,1-3.414-.309.822.822,0,1,1,.327-1.612,15.672,15.672,0,0,0,3.087.278.821.821,0,1,1,0,1.643Zm-6.277-1.455a.811.811,0,0,1-.442-.13,7.356,7.356,0,0,1-2.485-2.633.822.822,0,1,1,1.429-.812,5.737,5.737,0,0,0,1.941,2.06.822.822,0,0,1-.443,1.514Zm-3.3-5.429a.821.821,0,0,1-.8-.657,28.61,28.61,0,0,1-.432-3.361.822.822,0,1,1,1.638-.13,26.961,26.961,0,0,0,.4,3.164.82.82,0,0,1-.807.984Zm-.652-6.546a.822.822,0,0,1-.818-.752,22.486,22.486,0,0,0-.442-3.142.821.821,0,1,1,1.6-.365,24.2,24.2,0,0,1,.476,3.367.821.821,0,0,1-.749.887.477.477,0,0,1-.069,0Zm-1.656-6.285a.819.819,0,0,1-.69-.376,5.442,5.442,0,0,0-2.07-1.894.821.821,0,0,1,.771-1.45,7.151,7.151,0,0,1,2.678,2.452.822.822,0,0,1-.243,1.135.812.812,0,0,1-.445.133Zm-5.475-3.128a.738.738,0,0,1-.118-.008,19.7,19.7,0,0,0-2.234-.146.822.822,0,0,1-.821-.821.811.811,0,0,1,.839-.821,17.347,17.347,0,0,1,2.451.163.822.822,0,0,1-.116,1.635Z" transform="translate(-108.468 -195.183)" fill="#888b8b"/>
    <path id="Caminho_2351" data-name="Caminho 2351" d="M427.392,233.33A7.4,7.4,0,0,0,420,240.722c0,3.744,6,14.04,6.684,15.2a.823.823,0,0,0,1.416,0c.685-1.162,6.684-11.457,6.684-15.2a7.4,7.4,0,0,0-7.392-7.392Zm0,11.5a4.107,4.107,0,1,1,4.107-4.107A4.11,4.11,0,0,1,427.392,244.829Z" transform="translate(-325.358 -216.904)" fill="#888b8b"/>
  </g>
</svg>
