<svg xmlns="http://www.w3.org/2000/svg" width="39.416" height="39.424" viewBox="0 0 39.416 39.424">
  <g id="unico" transform="translate(-170.782 -100.721)">
    <path id="Caminho_2352" data-name="Caminho 2352" d="M292.656,130.291V115.079a7.39,7.39,0,1,0-4.926,0v15.212Zm-2.463-24.634a2.463,2.463,0,1,1-1.742.721A2.464,2.464,0,0,1,290.192,105.657Z" transform="translate(-99.7)" fill="#888b8b"/>
    <path id="Caminho_2353" data-name="Caminho 2353" d="M177.381,279.773H203.6a6.6,6.6,0,0,0,6.122-9.047l-3.59-8.979a6.563,6.563,0,0,0-6.122-4.145h-2.131v4.927h2.131a1.658,1.658,0,0,1,1.565,1.047l3.59,8.979h0a1.669,1.669,0,0,1-1.565,2.291H177.38a1.669,1.669,0,0,1-1.546-2.285l3.572-8.985a1.663,1.663,0,0,1,1.565-1.047H183.1V257.6h-2.131a6.563,6.563,0,0,0-6.122,4.145l-3.6,8.985a6.6,6.6,0,0,0,6.128,9.041Z" transform="translate(0 -139.628)" fill="#888b8b"/>
  </g>
</svg>
