<svg xmlns="http://www.w3.org/2000/svg" width="123.13" height="123.093" viewBox="0 0 123.13 123.093">
  <g id="email" transform="translate(-100.962 -31.114)">
    <path id="Caminho_2133" data-name="Caminho 2133" d="M222.63,81.351l-17-14.617V43.424a12.31,12.31,0,0,0-12.309-12.31H131.773a12.31,12.31,0,0,0-12.309,12.31v23.31l-17.04,14.617a4.076,4.076,0,0,0-1.462,3.077v49.237A20.5,20.5,0,0,0,121.5,154.207h82.086a20.5,20.5,0,0,0,20.5-20.5V84.467a4.079,4.079,0,0,0-1.462-3.116Zm-10.309,1.923-6.693,2.847V77.543ZM131.773,39.307H193.32a4.116,4.116,0,0,1,4.116,4.116V89.584L167.393,102.47a12.432,12.432,0,0,1-9.694,0L127.656,89.66V43.423a4.116,4.116,0,0,1,4.116-4.116Zm-12.309,46.85-6.693-2.847,6.693-5.77ZM215.9,133.7a12.308,12.308,0,0,1-12.309,12.309H187.166V133.7h-8.193v12.309H166.664V133.7h-8.232v12.309H146.123V133.7h-8.193v12.309H121.5A12.308,12.308,0,0,1,109.2,133.7V90.658l45.275,19.233h0a20.655,20.655,0,0,0,16.157,0l45.236-19.233Z" fill="#fff"/>
    <path id="Caminho_2134" data-name="Caminho 2134" d="M316.87,130.67H333.3v8.193H316.87Z" transform="translate(-162.518 -74.937)" fill="#fff"/>
    <path id="Caminho_2135" data-name="Caminho 2135" d="M283.58,197.09h32.812v8.193H283.58Z" transform="translate(-137.46 -124.933)" fill="#fff"/>
  </g>
</svg>
