<svg id="sino" xmlns="http://www.w3.org/2000/svg" width="18.272" height="20.1" viewBox="0 0 18.272 20.1">
  <path id="Caminho_433" data-name="Caminho 433" d="M40.631,14.618h-.914V7.309a7.309,7.309,0,1,0-14.618,0v7.309h-.914a.914.914,0,0,0,0,1.827h4.568a3.654,3.654,0,0,0,7.309,0h4.568a.914.914,0,1,0,0-1.827Zm-8.223,3.654a1.829,1.829,0,0,1-1.827-1.827h3.654A1.829,1.829,0,0,1,32.408,18.272Zm5.482-3.654H26.926V7.309a5.482,5.482,0,1,1,10.963,0Z" transform="translate(-23.272)" fill="#808285"/>
</svg>
