<svg id="usuario" xmlns="http://www.w3.org/2000/svg" width="19.91" height="19.91" viewBox="0 0 19.91 19.91">
  <g id="user">
    <g id="Grupo_382" data-name="Grupo 382">
      <g id="Grupo_381" data-name="Grupo 381">
        <path id="Caminho_430" data-name="Caminho 430" d="M9.955,0A9.955,9.955,0,1,0,19.91,9.955,9.966,9.966,0,0,0,9.955,0Zm0,18.334a8.379,8.379,0,1,1,8.379-8.379A8.389,8.389,0,0,1,9.955,18.334Z" fill="#808285"/>
      </g>
    </g>
    <g id="Grupo_384" data-name="Grupo 384" transform="translate(2.723 11.508)">
      <g id="Grupo_383" data-name="Grupo 383">
        <path id="Caminho_431" data-name="Caminho 431" d="M73.562,301.425A8.96,8.96,0,0,0,66.33,305.6l1.226,1.013a6.883,6.883,0,0,1,12.012,0l1.226-1.013A8.96,8.96,0,0,0,73.562,301.425Z" transform="translate(-66.33 -301.425)" fill="#808285"/>
      </g>
    </g>
    <g id="Grupo_386" data-name="Grupo 386" transform="translate(5.63 3.432)">
      <g id="Grupo_385" data-name="Grupo 385">
        <path id="Caminho_432" data-name="Caminho 432" d="M154.953,91.863a4.353,4.353,0,1,0,4.325,4.353A4.344,4.344,0,0,0,154.953,91.863Zm0,7.043a2.69,2.69,0,1,1,2.662-2.69A2.679,2.679,0,0,1,154.953,98.906Z" transform="translate(-150.628 -91.863)" fill="#808285"/>
      </g>
    </g>
  </g>
</svg>
