<svg xmlns="http://www.w3.org/2000/svg" width="16.203" height="16.203" viewBox="0 0 16.203 16.203">
  <g id="pix" transform="translate(0.023 -23.092)">
    <path id="Caminho_1956" data-name="Caminho 1956" d="M73.349,204.38a2.365,2.365,0,0,1-1.683-.695l-2.431-2.432a.462.462,0,0,0-.639,0l-2.439,2.439a2.366,2.366,0,0,1-1.683.7H64l3.08,3.08a2.464,2.464,0,0,0,3.481,0l3.086-3.087Z" transform="translate(-60.736 -168.893)" fill="#fff"/>
    <path id="Caminho_1957" data-name="Caminho 1957" d="M64.476,26.891a2.365,2.365,0,0,1,1.683.7L68.6,30.027a.452.452,0,0,0,.639,0l2.43-2.43a2.361,2.361,0,0,1,1.683-.7h.293l-3.086-3.086a2.461,2.461,0,0,0-3.481,0L64,26.891Z" transform="translate(-60.736)" fill="#fff"/>
    <path id="Caminho_1958" data-name="Caminho 1958" d="M15.459,112.383l-1.865-1.865a.359.359,0,0,1-.132.027h-.848a1.674,1.674,0,0,0-1.177.488l-2.43,2.429a1.167,1.167,0,0,1-1.649,0l-2.439-2.438a1.675,1.675,0,0,0-1.177-.488H2.7a.365.365,0,0,1-.125-.025L.7,112.383a2.464,2.464,0,0,0,0,3.481l1.873,1.873a.352.352,0,0,1,.125-.025H3.74a1.675,1.675,0,0,0,1.177-.488l2.439-2.439a1.2,1.2,0,0,1,1.65,0l2.43,2.43a1.675,1.675,0,0,0,1.177.488h.848a.354.354,0,0,1,.132.027l1.865-1.865a2.461,2.461,0,0,0,0-3.481" transform="translate(0 -82.93)" fill="#fff"/>
  </g>
</svg>
