<svg xmlns="http://www.w3.org/2000/svg" width="51.956" height="45.459" viewBox="0 0 51.956 45.459">
  <g id="prato" transform="translate(-91.532 -53.846)">
    <path id="Caminho_2058" data-name="Caminho 2058" d="M141.322,105.735H130.536L143.263,89.21a1.082,1.082,0,0,0-1.715-1.321L127.8,105.734H93.7a2.29,2.29,0,0,0-2.165,2.392V110.2a2.281,2.281,0,0,0,2.165,2.381l2.241-.011a.243.243,0,0,1,.076.173l1.147,8.984c.574,4.524,3.821,7.815,7.717,7.815H130.14c3.9,0,7.144-3.29,7.717-7.815L139,112.748c.011-.1.054-.152.022-.162h2.295a2.281,2.281,0,0,0,2.165-2.381v-2.078a2.29,2.29,0,0,0-2.164-2.392Z" transform="translate(0 -30.241)" fill="#fff"/>
    <path id="Caminho_2059" data-name="Caminho 2059" d="M323.581,68.466a1.08,1.08,0,0,0,.881-.451l1.871-2.608a3.928,3.928,0,0,0-.345-5,1.784,1.784,0,0,1-.149-2.241l1.87-2.608a1.082,1.082,0,0,0-1.759-1.262l-1.87,2.608a3.925,3.925,0,0,0,.344,5,1.785,1.785,0,0,1,.149,2.242l-1.87,2.607a1.083,1.083,0,0,0,.879,1.714Z" transform="translate(-207.753)" fill="#fff"/>
    <path id="Caminho_2060" data-name="Caminho 2060" d="M415.12,101.132a1.081,1.081,0,0,0,.851-.412l1.87-2.371a3.518,3.518,0,0,0-.35-4.745,1.345,1.345,0,0,1-.143-1.836l1.87-2.371a1.082,1.082,0,1,0-1.7-1.34l-1.87,2.371a3.515,3.515,0,0,0,.35,4.745,1.345,1.345,0,0,1,.143,1.836l-1.87,2.371a1.082,1.082,0,0,0,.849,1.753Z" transform="translate(-290.092 -30.401)" fill="#fff"/>
    <path id="Caminho_2061" data-name="Caminho 2061" d="M232.04,101.132a1.081,1.081,0,0,0,.851-.412l1.87-2.371a3.518,3.518,0,0,0-.35-4.745,1.345,1.345,0,0,1-.143-1.836l1.87-2.371a1.082,1.082,0,0,0-1.7-1.34l-1.87,2.371a3.515,3.515,0,0,0,.35,4.745,1.345,1.345,0,0,1,.143,1.836l-1.87,2.371a1.082,1.082,0,0,0,.849,1.753Z" transform="translate(-125.413 -30.401)" fill="#fff"/>
  </g>
</svg>
