<svg xmlns="http://www.w3.org/2000/svg" width="35.04" height="23" viewBox="0 0 35.04 23">
  <g id="Alelo" transform="translate(-433.797 -343)">
    <path id="Caminho_2106" data-name="Caminho 2106" d="M457.332,343a11.454,11.454,0,0,0-6.4,1.95c-.13.088-1.03.731-1.07.764a4.047,4.047,0,0,1-3.873.974c-.084-.022-.479-.156-.6-.2a8.571,8.571,0,1,0-.311,16.152c2.051-.613,3.163-.445,4.451.463.257.181.877.578,1.005.672a11.5,11.5,0,1,0,6.8-20.771Z" fill="#007858"/>
    <g id="Grupo_536" data-name="Grupo 536" transform="translate(445.655 349.779)">
      <path id="Caminho_2107" data-name="Caminho 2107" d="M1206.794,787.1a2.032,2.032,0,0,1-2.516.266l-.764,1.211a3.471,3.471,0,0,0,4.285-.456Zm-1.374-4.934a3.474,3.474,0,0,0-2.967,5.369l6.293-2.689a3.476,3.476,0,0,0-3.326-2.68Zm-2.085,3.689a2.042,2.042,0,0,1,3.593-1.537Zm7.386-5.253v6.706l1.164.483-.549,1.318-1.154-.479a1.273,1.273,0,0,1-.567-.479,1.484,1.484,0,0,1-.223-.824V780.6Zm-10.133,0v6.706l1.154.483-.548,1.318-1.154-.479a1.272,1.272,0,0,1-.548-.469,1.486,1.486,0,0,1-.225-.824V780.6Z" transform="translate(-1199.266 -780.6)" fill="#fff"/>
    </g>
    <path id="Caminho_2108" data-name="Caminho 2108" d="M2102.932,883.168a2.044,2.044,0,0,1,.953,2.728h0l1.287.618a3.475,3.475,0,0,0-5.472-4.073l.962,1.057a2.046,2.046,0,0,1,2.27-.33Z" transform="translate(-1640.096 -530.195)" fill="#c7d540"/>
    <path id="Caminho_2109" data-name="Caminho 2109" d="M691.247,887.7a2.047,2.047,0,0,1-.957-2.73l-1.287-.62a3.475,3.475,0,0,0,5.464,4.073l-.962-1.055A2.046,2.046,0,0,1,691.247,887.7Zm-16.725.1v-1.941a3.459,3.459,0,1,0-1.915,3.1l-.558-1.3a2.05,2.05,0,1,1-1.456-3.789,2.02,2.02,0,0,1,.462-.054,2.052,2.052,0,0,1,2.054,2.048v1.926a1.484,1.484,0,0,0,.223.824,1.294,1.294,0,0,0,.567.479l.649.257.55-1.318Z" transform="translate(-230.181 -531.044)" fill="#fff"/>
  </g>
</svg>
