<svg id="sodexo" xmlns="http://www.w3.org/2000/svg" width="71.239" height="23" viewBox="0 0 71.239 23">
  <path id="Caminho_2110" data-name="Caminho 2110" d="M33.806,14.224l-.79,3.949a3.056,3.056,0,0,1-3.283,2.67c-2.261,0-2.858-1.4-2.362-3.376.7-2.8,2.986-3.633,6.435-3.243m3.561-5.646-2.4.153L34.2,12.6c-.919-.032-1.208-.062-2.289-.062-3.383,0-6.336,1.422-7.116,4.758-.7,3.008,1.006,5.342,4.731,5.342,3.817,0,5.477-1.991,6.074-4.791ZM11.287,14.392c-3.525-.321-6.558-.029-6.607,1.168-.076,1.8,5.81.229,5.7,3.536C10.211,23.954,2.025,22.836,0,22.218l.368-1.442c3.492.554,7.176.6,7.257-1.326.087-2.047-5.824-.207-5.686-3.522.1-2.469,3.8-3.8,9.845-2.913Zm9.505,3.3A4.138,4.138,0,0,1,16.761,21c-2,0-2.9-1.16-2.366-3.3a4.241,4.241,0,0,1,4.05-3.388c1.913,0,2.856,1.361,2.348,3.388m-2.039-5.048c-3.506,0-6.324,2.028-7.017,5.048s1.193,5.05,4.7,5.05,6.323-2.028,7.016-5.05-1.192-5.048-4.7-5.048m40.5,10.047H56.211a55.148,55.148,0,0,1-7.986-9.954h2.236c2.471,3.411,8.8,9.954,8.8,9.954M62.451,2.923,63.854,0l.4,2.972,2.859-1-2,2.562,2.167,1.679-2.892.223-.16,3.091L62.622,7.242,60.259,9.421l.886-3.071-2.787-.378L61.07,4.427,59.957,1.782Zm5.943,14.8A4.2,4.2,0,0,1,64.3,21.08c-2.033,0-2.949-1.179-2.4-3.353a4.307,4.307,0,0,1,4.112-3.442c1.945,0,2.9,1.383,2.385,3.442M66.323,12.6c-3.56,0-6.422,2.061-7.128,5.13s1.212,5.129,4.772,5.129,6.423-2.06,7.127-5.129-1.211-5.13-4.772-5.13" fill="#2b3797"/>
  <path id="Caminho_2111" data-name="Caminho 2111" d="M84.921,29.909a53.514,53.514,0,0,0,14.3-12.357c-2.549,7.979-8.686,12.273-14.3,12.357" transform="translate(-39.006 -8.062)" fill="#ed1c24"/>
  <path id="Caminho_2112" data-name="Caminho 2112" d="M74.864,24.858c1.1,0,1.7.4,1.7,1.165,0,2.029-3.956,1.9-5.7,1.54a4.192,4.192,0,0,1,4-2.7m4.073,1.054c0-1.472-1.173-2.553-3.833-2.553-4.316,0-7.12,2.8-7.12,6.269,0,2.239,1.859,4.1,5.255,4.1a7.075,7.075,0,0,0,3.9-1.153c-2.978.319-6.635,0-6.635-3.186,0-.127.007-.253.017-.379,4.063.843,8.413-.177,8.413-3.1" transform="translate(-31.226 -10.729)" fill="#2b3797"/>
</svg>
