<svg xmlns="http://www.w3.org/2000/svg" width="22.999" height="23" viewBox="0 0 22.999 23">
  <g id="ticket" transform="translate(0 -69.824)">
    <ellipse id="path821-9-5" cx="11.498" cy="11.499" rx="11.498" ry="11.499" transform="translate(0.003 69.824)" fill="#fff"/>
    <path id="Combined-Shape" d="M20.238,82.141H16.752a1.382,1.382,0,0,0,1.479,1.047,2.544,2.544,0,0,0,1.091-.246l-.1,1.038a3.557,3.557,0,0,1-1.32.22,2.388,2.388,0,0,1-2.641-2.447,2.306,2.306,0,0,1,2.473-2.341,2.358,2.358,0,0,1,2.5,2.729Zm-6.3,1.972c-.07-.167-.176-.44-.264-.713l-.2-.678c-.106-.361-.246-.51-.59-.51H12.3v1.9H10.952V77.9H12.3v3.424h.15L13.724,79.5h1.5l-1.505,1.9h.079c.6,0,.775.335.924.827l.255.854a6,6,0,0,0,.414,1.03Zm-4.313-1.03a1.978,1.978,0,0,0,.863-.2L10.362,84a2.439,2.439,0,0,1-1.021.211,2.4,2.4,0,1,1-.009-4.8,3.118,3.118,0,0,1,1.373.3l-.387,1.039a1.547,1.547,0,0,0-.783-.22A1.163,1.163,0,0,0,8.311,81.8a1.213,1.213,0,0,0,1.311,1.285ZM5.1,78.911H6.471V77.9H5.1Zm0,5.2H6.471V79.5H5.1Zm15.43-2.491V78.488l1.373-.554v1.655h.924l-.185,1.03h-.757v1.056a3.852,3.852,0,0,0,.8,2.329A11.5,11.5,0,0,0,.52,77.9H4.8l-.167,1.232H2.845v4.982H1.384V79.131H.21a11.5,11.5,0,0,0,22.448,4.982H21.3a4.341,4.341,0,0,1-.775-2.491Zm-2.746-1.259a1.058,1.058,0,0,0-1.065.88h2.068a.95.95,0,0,0-1-.88" transform="translate(0 -0.003)" fill="#d52b1e"/>
  </g>
</svg>
