<svg id="valecard" xmlns="http://www.w3.org/2000/svg" xmlns:xlink="http://www.w3.org/1999/xlink" width="89.508" height="23" viewBox="0 0 89.508 23">
  <defs>
    <clipPath id="clip-path">
      <path id="Caminho_2117" data-name="Caminho 2117" d="M0,6H21.184V27.6H0ZM0,6" transform="translate(0 -6)"/>
    </clipPath>
    <clipPath id="clip-path-2">
      <path id="Caminho_2119" data-name="Caminho 2119" d="M47,6H70.046V27.6H47Zm0,0" transform="translate(-47 -6)"/>
    </clipPath>
    <clipPath id="clip-path-3">
      <path id="Caminho_2121" data-name="Caminho 2121" d="M145,6h14.9V27.6H145Zm0,0" transform="translate(-145 -6)"/>
    </clipPath>
    <clipPath id="clip-path-4">
      <path id="Caminho_2123" data-name="Caminho 2123" d="M207,6h18.391V27.6H207Zm0,0" transform="translate(-207 -6)"/>
    </clipPath>
    <clipPath id="clip-path-5">
      <path id="Caminho_2125" data-name="Caminho 2125" d="M292,0h21.533V6.518H292Zm0,0" transform="translate(-292)"/>
    </clipPath>
    <clipPath id="clip-path-6">
      <path id="Caminho_2128" data-name="Caminho 2128" d="M277,71h15.83v6.472H277Zm0,0" transform="translate(-277 -71)"/>
    </clipPath>
    <clipPath id="clip-path-7">
      <path id="Caminho_2132" data-name="Caminho 2132" d="M288,71h6.285v6.472H288Zm0,0" transform="translate(-288 -71)"/>
    </clipPath>
  </defs>
  <g id="Grupo_537" data-name="Grupo 537" transform="translate(0 1.397)" clip-path="url(#clip-path)">
    <path id="Caminho_2116" data-name="Caminho 2116" d="M0,6.073l5.84-.022L7.472,19.3,14.7,6.074l6.287.016L8.956,27.538H2.884Zm0,0" transform="translate(-0.003 -6.039)" fill="#013f88"/>
  </g>
  <g id="Grupo_538" data-name="Grupo 538" transform="translate(10.941 1.397)" clip-path="url(#clip-path-2)">
    <path id="Caminho_2118" data-name="Caminho 2118" d="M47.7,27.538,60.885,6.051h5.608l3.948,21.487H64.567L63.8,22.975l-6.892.01-2.622,4.552ZM59.711,18.03,62.3,13.518l.763,4.511Zm0,0" transform="translate(-47.536 -6.039)" fill="#013f88"/>
  </g>
  <g id="Grupo_539" data-name="Grupo 539" transform="translate(33.755 1.397)" clip-path="url(#clip-path-3)">
    <path id="Caminho_2120" data-name="Caminho 2120" d="M150.33,6.34l5.879.01-3.5,16.348H160.4l-1.1,5.143-13.541-.082Zm0,0" transform="translate(-145.578 -6.261)" fill="#013f88"/>
  </g>
  <g id="Grupo_540" data-name="Grupo 540" transform="translate(48.188 1.397)" clip-path="url(#clip-path-4)">
    <path id="Caminho_2122" data-name="Caminho 2122" d="M212.121,6.535l13.506.033-.984,4.911h-7.71l-.686,3.009h7.721l-1.14,5.542H215.12l-.7,3.053h7.809l-1.007,4.9-13.694.007Zm0,0" transform="translate(-207.407 -6.411)" fill="#013f88"/>
  </g>
  <g id="Grupo_541" data-name="Grupo 541" transform="translate(67.975)" clip-path="url(#clip-path-5)">
    <path id="Caminho_2124" data-name="Caminho 2124" d="M292.652,6.406l1.029-4.894h10.041l3.3-1.519,7.035-.005-2.854,5-6.947.005L300.98,6.406Zm0,0" transform="translate(-292.5 0.009)" fill="#fcaf24"/>
  </g>
  <path id="Caminho_2126" data-name="Caminho 2126" d="M286.354,36.2l7.2.011,3.241-1.393h6.957l-3.059,5.469h-6.947L290.5,41.7h-5.229Zm0,0" transform="translate(-218.858 -26.711)" fill="#ec1a3a"/>
  <g id="Grupo_542" data-name="Grupo 542" transform="translate(64.483 16.528)" clip-path="url(#clip-path-6)">
    <path id="Caminho_2127" data-name="Caminho 2127" d="M278.887,72.989l4.165.011,3.246-1.41h7.024L290.545,76.5h-6.969l-3.252,1.4h-2.433Zm0,0" transform="translate(-277.684 -71.452)" fill="#013f88"/>
  </g>
  <path id="Caminho_2129" data-name="Caminho 2129" d="M331.169,1.53l-2.743,4.894L331.7,5.011l2.765-5Zm0,0" transform="translate(-251.971 -0.009)" fill="#cf921d"/>
  <path id="Caminho_2130" data-name="Caminho 2130" d="M310.789,36.21,307.73,41.7l3.252-1.416,3.048-5.469Zm0,0" transform="translate(-236.093 -26.711)" fill="#c3122f"/>
  <g id="Grupo_543" data-name="Grupo 543" transform="translate(67.044 16.528)" clip-path="url(#clip-path-7)">
    <path id="Caminho_2131" data-name="Caminho 2131" d="M291.071,73l-2.727,4.9,3.252-1.4,2.722-4.911Zm0,0" transform="translate(-288.264 -71.452)" fill="#002e6e"/>
  </g>
</svg>
