<svg id="vr-vale-refeicao" xmlns="http://www.w3.org/2000/svg" width="19.021" height="23" viewBox="0 0 19.021 23">
  <path id="Caminho_2113" data-name="Caminho 2113" d="M0,812.348H19.021V807.93H0Z" transform="translate(0 -789.348)" fill="#db9600"/>
  <path id="Caminho_2114" data-name="Caminho 2114" d="M19.021,18.664H0V0H19.021Z" fill="#54923c"/>
  <path id="Caminho_2115" data-name="Caminho 2115" d="M66.442,310.176H62.2l-1.466-5.509h1.049a1.134,1.134,0,0,0,1.012-1.089c0-.719-.66-.7-.892-.713H60.6l-2.833,7.311h-4.2l-2.833-7.728H54.2l1.367,4.1,1.625-6.4H63.4a3.124,3.124,0,0,1,3.042,3.2,3.229,3.229,0,0,1-1.556,2.793l1.556,4.033Zm-13.211,4.873v-2.24a3.2,3.2,0,0,1,.593-.051,1.032,1.032,0,0,1,.657.169.559.559,0,0,1,.206.455.569.569,0,0,1-.115.354.649.649,0,0,1-.319.222.6.6,0,0,1,.333.462,4.187,4.187,0,0,0,.182.63h-.324a3.046,3.046,0,0,1-.152-.539.652.652,0,0,0-.161-.339.425.425,0,0,0-.3-.1h-.285v.977Zm.313-2.024v.812h.313a.573.573,0,0,0,.376-.115.416.416,0,0,0,0-.618.62.62,0,0,0-.391-.107,1.288,1.288,0,0,0-.3.027Zm2.917,1.273H55.279a.536.536,0,0,0,.163.4.584.584,0,0,0,.406.14,1.237,1.237,0,0,0,.475-.084l.054.219a1.38,1.38,0,0,1-.569.108.82.82,0,0,1-.607-.226.81.81,0,0,1-.226-.6.929.929,0,0,1,.217-.627.728.728,0,0,1,.582-.253.624.624,0,0,1,.517.224.854.854,0,0,1,.18.55.753.753,0,0,1-.01.141Zm-1.179-.226h.886a.51.51,0,0,0-.109-.34.382.382,0,0,0-.309-.129.419.419,0,0,0-.315.129A.585.585,0,0,0,55.282,314.073Zm1.907.977h-.313v-1.392h-.228v-.239h.23v-.074a.821.821,0,0,1,.16-.54.545.545,0,0,1,.443-.191.683.683,0,0,1,.259.047l-.037.242a.484.484,0,0,0-.2-.037q-.32,0-.32.468v.084h.4v.239h-.4v1.391Zm2-.751H58a.536.536,0,0,0,.164.4.583.583,0,0,0,.405.14,1.238,1.238,0,0,0,.475-.084l.054.219a1.378,1.378,0,0,1-.569.108.777.777,0,0,1-.832-.825.929.929,0,0,1,.217-.627.728.728,0,0,1,.581-.253.625.625,0,0,1,.517.224.85.85,0,0,1,.18.55.734.734,0,0,1-.01.141Zm-1.179-.226h.886a.511.511,0,0,0-.108-.34.381.381,0,0,0-.309-.129.419.419,0,0,0-.315.129A.584.584,0,0,0,58.007,314.073Zm1.88.977h-.313v-1.631h.313v1.63Zm.044-2.126a.2.2,0,0,1-.345.141.2.2,0,0,1-.055-.141.19.19,0,0,1,.057-.138.2.2,0,0,1,.146-.056.193.193,0,0,1,.143.056A.189.189,0,0,1,59.931,312.924Zm1.613,1.829.057.236a1.139,1.139,0,0,1-.458.094l-.08.131a.291.291,0,0,1,.171.08.209.209,0,0,1,.065.153.239.239,0,0,1-.1.2.5.5,0,0,1-.5.011l.05-.148a.343.343,0,0,0,.182.051q.148,0,.148-.1t-.266-.138l.141-.248a.764.764,0,0,1-.512-.27.911.911,0,0,1,.066-1.178.9.9,0,0,1,.658-.243.96.96,0,0,1,.428.091l-.067.239a.771.771,0,0,0-.361-.081.563.563,0,0,0-.428.169.606.606,0,0,0-.161.434.591.591,0,0,0,.164.435.564.564,0,0,0,.419.165.912.912,0,0,0,.377-.081Zm1.6-.69v.6a2.275,2.275,0,0,0,.027.391h-.286l-.037-.209a.607.607,0,0,1-.515.246.507.507,0,0,1-.372-.138.446.446,0,0,1-.14-.331.5.5,0,0,1,.258-.453,1.469,1.469,0,0,1,.753-.158v-.03a.369.369,0,0,0-.095-.27.384.384,0,0,0-.282-.1.808.808,0,0,0-.445.125l-.071-.206a1.037,1.037,0,0,1,.562-.148.626.626,0,0,1,.481.175.71.71,0,0,1,.161.506Zm-.307.43v-.27a1.126,1.126,0,0,0-.547.094.29.29,0,0,0-.153.259.268.268,0,0,0,.077.2.281.281,0,0,0,.2.073.429.429,0,0,0,.3-.111.331.331,0,0,0,.121-.25Zm-.573-1.337H62.11a.469.469,0,0,1,.058-.253.184.184,0,0,1,.164-.092.522.522,0,0,1,.219.077.355.355,0,0,0,.155.057c.053,0,.082-.048.088-.145h.155q0,.333-.23.333a.461.461,0,0,1-.212-.074.356.356,0,0,0-.152-.057c-.051,0-.08.05-.088.152Zm2.907,1.061a.932.932,0,0,1-.109.46.75.75,0,0,1-.307.3.883.883,0,0,1-.426.106.8.8,0,0,1-.59-.234.82.82,0,0,1-.232-.605.842.842,0,0,1,.24-.631.829.829,0,0,1,.605-.235.79.79,0,0,1,.591.233.826.826,0,0,1,.227.6Zm-1.344.02a.673.673,0,0,0,.143.442.446.446,0,0,0,.359.175.463.463,0,0,0,.368-.175.677.677,0,0,0,.147-.451.7.7,0,0,0-.135-.434.437.437,0,0,0-.37-.179.448.448,0,0,0-.375.178.712.712,0,0,0-.138.446Z" transform="translate(-49.563 -293.247)" fill="#fff"/>
</svg>
