<svg xmlns="http://www.w3.org/2000/svg" width="20.164" height="20.164" viewBox="0 0 20.164 20.164">
  <g id="clientes" transform="translate(-31.41 -171)">
    <g id="user" transform="translate(-60.99 148.598)">
      <path id="Caminho_2101" data-name="Caminho 2101" d="M102.482,22.4a10.082,10.082,0,1,0,10.082,10.082A10.1,10.1,0,0,0,102.482,22.4Zm0,1.753a8.334,8.334,0,0,1,6.986,12.869,8.492,8.492,0,0,0-13.972,0,8.334,8.334,0,0,1,6.986-12.87Zm0,.438a3.968,3.968,0,0,0-3.726,4.164,3.749,3.749,0,1,0,7.452,0A3.968,3.968,0,0,0,102.482,24.594Zm0,1.753a2.221,2.221,0,0,1,1.973,2.411,2.012,2.012,0,1,1-3.945,0A2.221,2.221,0,0,1,102.482,26.347Zm0,8.767a7,7,0,0,1,5.836,3.322,8.352,8.352,0,0,1-11.671,0A7,7,0,0,1,102.482,35.114Z" fill="#05cb95"/>
    </g>
  </g>
</svg>
