<svg xmlns="http://www.w3.org/2000/svg" width="24.653" height="19.969" viewBox="0 0 24.653 19.969">
  <g id="meios_de_pagamento" data-name="meios de pagamento" transform="translate(-29.397 -204.701)">
    <g id="cartado-credito" transform="translate(-82.604 117.488)">
      <path id="Caminho_2102" data-name="Caminho 2102" d="M113.721,103.543a1.7,1.7,0,0,0,1.92,1.92h17.387a1.692,1.692,0,0,0,1.906-1.92V97.126H113.722ZM112,90.837q0-3.625,3.641-3.624h17.387q3.626,0,3.626,3.624v12.706q0,3.641-3.626,3.638H115.642q-3.64,0-3.641-3.638Zm1.72,0v1.475h21.213V90.837a1.685,1.685,0,0,0-1.906-1.906H115.642a1.692,1.692,0,0,0-1.92,1.906Z" transform="translate(0 0)" fill="#05cb95" fill-rule="evenodd"/>
    </g>
  </g>
</svg>
