<svg xmlns="http://www.w3.org/2000/svg" width="24.654" height="18.406" viewBox="0 0 24.654 18.406">
  <g id="entregas" transform="translate(-29.028 -206)">
    <g id="capacete" transform="translate(-57.445 122.746)">
      <path id="Caminho_2057" data-name="Caminho 2057" d="M108.45,101.66H92.461a3.44,3.44,0,0,1-1.075-.172,3.365,3.365,0,0,1-.962-.5,9.821,9.821,0,0,1-3.952-7.972v-.045A9.735,9.735,0,0,1,89.5,86.052a10.037,10.037,0,0,1,7.034-2.8h.046a15.517,15.517,0,0,1,6.152,1.248,9.246,9.246,0,0,1,4.134,3.459l.022.034s.4.714.549,1.055l2.609,5.241.785,2.263a5.355,5.355,0,0,1,.077,3.264,2.563,2.563,0,0,1-2.46,1.841ZM96.263,91.677a.271.271,0,1,0-.079.192A.271.271,0,0,0,96.263,91.677Zm1.051-1.323a1.873,1.873,0,0,1,.251.31q-.021-.268-.021-.541a1.823,1.823,0,0,1,1.817-1.818v0h5.812a7.964,7.964,0,0,0-3.1-2.352,13.916,13.916,0,0,0-5.514-1.11h-.04A8.444,8.444,0,0,0,90.607,87.2a8.146,8.146,0,0,0-2.541,5.783v.039A8.246,8.246,0,0,0,91.38,99.71a1.764,1.764,0,0,0,.506.26,1.837,1.837,0,0,0,.575.091h15.988a.97.97,0,0,0,.929-.692,3.751,3.751,0,0,0-.042-2.265h-4.812a6.974,6.974,0,0,1-4.933-2.046l0,0a7.01,7.01,0,0,1-1.767-2.989,1.872,1.872,0,1,1-.507-1.716Zm8.763-.452H103.44l2.785,5.6h2.558l-.191-.552Zm-4.419,0h-.9l2.737,5.505a5.435,5.435,0,0,0,.945.1Zm-2.513.333a5.325,5.325,0,0,0,1.575,3.693v0a5.43,5.43,0,0,0,.471.42Z" transform="translate(0)" fill="#292f31" fill-rule="evenodd"/>
    </g>
  </g>
</svg>
