<svg xmlns="http://www.w3.org/2000/svg" width="17.109" height="23.738" viewBox="0 0 17.109 23.738">
  <g id="areas-de-entregas" transform="translate(-158.174 -13.998)">
    <path id="Caminho_2332" data-name="Caminho 2332" d="M175.123,34.66,173.5,30.732a2.207,2.207,0,0,0-2.076-1.376h-.4a41.434,41.434,0,0,0,2.726-3.852,7.622,7.622,0,0,0,.025-7.154A7.881,7.881,0,0,0,166.693,14a7.665,7.665,0,0,0-3.552.85,7.79,7.79,0,0,0-3.927,4.6,7.909,7.909,0,0,0,.425,6,30.808,30.808,0,0,0,2.7,3.877h-.3a2.27,2.27,0,0,0-2.076,1.376l-1.626,3.927a2.313,2.313,0,0,0,.2,2.1,2.226,2.226,0,0,0,1.851,1h12.632a2.194,2.194,0,0,0,1.851-1,2.128,2.128,0,0,0,.25-2.076Zm-11.256-18.41a6.45,6.45,0,0,1,2.852-.675,6.283,6.283,0,0,1,5.653,3.5,6.059,6.059,0,0,1,0,5.7,82.12,82.12,0,0,1-5.028,6.729.83.83,0,0,1-.625.3.793.793,0,0,1-.625-.3,67.84,67.84,0,0,1-5.028-6.729,6.4,6.4,0,0,1,2.8-8.53Zm9.18,19.936H160.414a.674.674,0,0,1-.625-.925l1.626-3.927a.659.659,0,0,1,.625-.4h1.551c.425.525.85,1.051,1.251,1.551a2.394,2.394,0,0,0,3.7,0c.35-.45.775-.976,1.226-1.551H171.4a.7.7,0,0,1,.625.4l1.626,3.927a.652.652,0,0,1-.6.925Z" transform="translate(0)" fill="#292f31"/>
    <path id="Caminho_2333" data-name="Caminho 2333" d="M282.12,120.34a3.3,3.3,0,1,0-3.3,3.3A3.3,3.3,0,0,0,282.12,120.34Zm-5.028,0a1.726,1.726,0,1,1,1.726,1.726A1.729,1.729,0,0,1,277.092,120.34Z" transform="translate(-112.1 -98.437)" fill="#292f31"/>
  </g>
</svg>
