<svg xmlns="http://www.w3.org/2000/svg" width="23.696" height="23.71" viewBox="0 0 23.696 23.71">
  <g id="notificação_web" data-name="notificação web" transform="translate(-0.15)">
    <g id="Grupo_514" data-name="Grupo 514" transform="translate(0.15)">
      <path id="Caminho_929" data-name="Caminho 929" d="M23.548,3.371A5.065,5.065,0,0,0,14,3.387H4.384A4.239,4.239,0,0,0,.15,7.621V19.476A4.239,4.239,0,0,0,4.384,23.71H16.239a4.239,4.239,0,0,0,4.234-4.234V9.865A5.081,5.081,0,0,0,23.548,3.371ZM18.78,19.476a2.54,2.54,0,0,1-2.54,2.54H4.384a2.54,2.54,0,0,1-2.54-2.54V7.621a2.54,2.54,0,0,1,2.54-2.54H13.7a5.086,5.086,0,0,0,5.081,5.081v9.315Zm0-11.008a3.387,3.387,0,1,1,3.387-3.387A3.387,3.387,0,0,1,18.78,8.468Z" transform="translate(-0.15)" fill="#292f31"/>
    </g>
  </g>
</svg>
