<svg xmlns="http://www.w3.org/2000/svg" width="19.949" height="19.949" viewBox="0 0 19.949 19.949">
  <g id="perfil-loja" transform="translate(-31 -284)">
    <g id="perfil" transform="translate(31 284)">
      <path id="Caminho_158" data-name="Caminho 158" d="M19.912,4.762,18.487.487A.712.712,0,0,0,17.811,0H2.137a.712.712,0,0,0-.676.487L.036,4.762A.726.726,0,0,0,0,4.968V5.7A3.547,3.547,0,0,0,1.425,8.534v9.278a2.137,2.137,0,0,0,2.137,2.137H16.386a2.137,2.137,0,0,0,2.137-2.137V8.534A3.547,3.547,0,0,0,19.949,5.7V4.968A.724.724,0,0,0,19.912,4.762ZM14.961,1.425H17.3l.95,2.85H14.961Zm-4.275,0h2.85v2.85h-2.85Zm-4.275,0h2.85v2.85H6.412Zm-3.761,0H4.987v2.85H1.7Zm8.748,17.1H8.549v-5.7H11.4v5.7Zm5.7-.712a.712.712,0,0,1-.712.712H12.824V12.112a.712.712,0,0,0-.712-.712H7.837a.712.712,0,0,0-.712.712v6.412H3.562a.712.712,0,0,1-.712-.712V9.191A3.522,3.522,0,0,0,5.7,8.537a3.611,3.611,0,0,0,4.275,0,3.611,3.611,0,0,0,4.275,0,3.522,3.522,0,0,0,2.85.654v8.621Zm-.712-9.974a2.105,2.105,0,0,1-1.6-.74.712.712,0,0,0-1.073,0,2.149,2.149,0,0,1-3.2,0,.737.737,0,0,0-1.041-.032L9.438,7.1a2.149,2.149,0,0,1-3.2,0,.737.737,0,0,0-1.041-.032L5.163,7.1a2.105,2.105,0,0,1-1.6.74A2.137,2.137,0,0,1,1.425,5.7h17.1A2.137,2.137,0,0,1,16.386,7.837Z" transform="translate(0 0)" fill="#292f31"/>
    </g>
  </g>
</svg>
