<svg xmlns="http://www.w3.org/2000/svg" width="33.051" height="35.725" viewBox="0 0 33.051 35.725">
  <g id="suporte" transform="translate(-19.165)">
    <g id="Grupo_70" data-name="Grupo 70" transform="translate(19.165)">
      <g id="Grupo_69" data-name="Grupo 69">
        <path id="Caminho_64" data-name="Caminho 64" d="M48.787,13.151a1.16,1.16,0,0,0-.2.017v-.31a12.858,12.858,0,1,0-25.716,0v.31a1.159,1.159,0,0,0-.2-.017,3.516,3.516,0,0,0-3.512,3.512v5.747a3.517,3.517,0,0,0,2.693,3.414l-.04,1.744a1.162,1.162,0,0,0,.933,1.166l4.438.89a9.092,9.092,0,0,0,16.63,1.244h.142A5.042,5.042,0,0,0,49,25.915a3.433,3.433,0,0,0,3.219-3.422V16.58A3.432,3.432,0,0,0,48.787,13.151ZM22.874,23.6h-.2a1.189,1.189,0,0,1-1.188-1.188V16.663a1.189,1.189,0,0,1,1.188-1.188,1.158,1.158,0,0,0,.2-.017ZM35.732,2.324a10.552,10.552,0,0,1,9.92,6.989,12.18,12.18,0,0,0-1.9-1.679,14.044,14.044,0,0,0-15.944,0,12.158,12.158,0,0,0-2.059,1.859A10.553,10.553,0,0,1,35.732,2.324Zm6.813,24.308a6.752,6.752,0,0,1-.276,1.913H37.055a1.162,1.162,0,0,0,0,2.324h4a6.766,6.766,0,0,1-12.044-4.237v-7.4a13.922,13.922,0,0,0,3.5-3.042,17.115,17.115,0,0,0,10.04,3.531v6.907Zm4.13-.8a2.717,2.717,0,0,1-1.987,2.614,9.1,9.1,0,0,0,.182-1.814V18.615a1.2,1.2,0,0,0-1.185-1.187,16.434,16.434,0,0,1-8.007-1.9,9.9,9.9,0,0,1-2.537-1.9,1.162,1.162,0,0,0-1.964.3c-.653,1.568-3.034,3.159-3.9,3.639a1.162,1.162,0,0,0-.6,1.016v8.056c0,.176.006.351.015.524l-2.534-.508.017-.736A1.162,1.162,0,0,0,25.2,24.76v-9.1c0-.011.006-.022.009-.034,1.334-6.016,6.53-8.15,10.574-8.15,3.96,0,9.024,2.047,10.485,7.78v9.5a1.16,1.16,0,0,0,.423.9A1.155,1.155,0,0,0,46.674,25.832ZM48.787,23.6h-.2V15.742a1.154,1.154,0,0,0,.058-.276,1.161,1.161,0,0,0,.139.009,1.106,1.106,0,0,1,1.1,1.1v5.914h0A1.106,1.106,0,0,1,48.787,23.6Z" transform="translate(-19.165)" fill="#292f31"/>
      </g>
    </g>
    <g id="Grupo_72" data-name="Grupo 72" transform="translate(30.539 21.426)">
      <g id="Grupo_71" data-name="Grupo 71">
        <path id="Caminho_65" data-name="Caminho 65" d="M185.19,307.066h-1.859a1.162,1.162,0,1,0,0,2.324h1.859a1.162,1.162,0,1,0,0-2.324Z" transform="translate(-182.169 -307.066)" fill="#292f31"/>
      </g>
    </g>
    <g id="Grupo_74" data-name="Grupo 74" transform="translate(36.659 21.426)">
      <g id="Grupo_73" data-name="Grupo 73">
        <path id="Caminho_66" data-name="Caminho 66" d="M272.9,307.066H271.04a1.162,1.162,0,1,0,0,2.324H272.9a1.162,1.162,0,1,0,0-2.324Z" transform="translate(-269.878 -307.066)" fill="#292f31"/>
      </g>
    </g>
  </g>
</svg>
