<svg xmlns="http://www.w3.org/2000/svg" width="26.736" height="26.736" viewBox="0 0 26.736 26.736">
  <g id="cancel" transform="translate(0 -0.001)">
    <path id="Caminho_434" data-name="Caminho 434" d="M26.731,6.595a.835.835,0,0,0-.477-.667L13.722.079a.836.836,0,0,0-.707,0L.482,5.928a.835.835,0,0,0-.477.667C0,6.6,0,6.68,0,6.685v14.2a.835.835,0,0,0,.525.776l12.533,5.013a.835.835,0,0,0,.621,0l3.4-1.358a5.846,5.846,0,0,0,9.662-4.431V6.685S26.732,6.6,26.731,6.595ZM13.368,1.758,23.8,6.626,19.782,8.232,9.155,3.724Zm-.836,22.909L1.671,20.323V7.919l10.862,4.345ZM13.368,10.8,2.938,6.626l4.18-1.951L17.58,9.113Zm7.52,14.268a4.178,4.178,0,1,1,4.178-4.178A4.182,4.182,0,0,1,20.888,25.066Zm0-10.026a5.846,5.846,0,0,0-4.963,8.939l-1.721.688v-12.4L25.065,7.919V16.8A5.831,5.831,0,0,0,20.888,15.04Z" transform="translate(0 0)" fill="#f3b44e"/>
    <path id="Caminho_435" data-name="Caminho 435" d="M363.27,362.088l.662-.662a.836.836,0,0,0-1.182-1.182l-.662.662-.662-.663a.836.836,0,0,0-1.182,1.182l.663.662-.662.663a.835.835,0,0,0,1.182,1.182l.662-.663.663.663a.835.835,0,1,0,1.182-1.182Z" transform="translate(-341.2 -341.199)" fill="#f3b44e"/>
  </g>
</svg>
