<svg xmlns="http://www.w3.org/2000/svg" width="28.926" height="24.105" viewBox="0 0 28.926 24.105">
  <g id="nao-entregue" transform="translate(-140 -105)">
    <path id="Caminho_1397" data-name="Caminho 1397" d="M279.373,253.388h-.706l1.559-1.558-1.7-1.7-4.468,4.468,4.468,4.468,1.7-1.7-1.558-1.558h.706A1.207,1.207,0,0,1,280.579,257v3.616a1.207,1.207,0,0,1-1.205,1.205H262.5v2.41h16.873a3.62,3.62,0,0,0,3.616-3.616V257A3.62,3.62,0,0,0,279.373,253.388Z" transform="translate(-114.063 -135.13)" fill="#698897"/>
    <path id="Caminho_1398" data-name="Caminho 1398" d="M159.284,105H140v18.079h19.284Zm-10.847,2.41h2.41v1.205h-2.41Zm8.437,13.258H142.41V107.41h3.616v3.616h7.231V107.41h3.616Z" transform="translate(0)" fill="#698897"/>
  </g>
</svg>
