<svg xmlns="http://www.w3.org/2000/svg" width="20.324" height="26.682" viewBox="0 0 20.324 26.682">
  <g id="vendas" transform="translate(-61)">
    <g id="Grupo_389" data-name="Grupo 389" transform="translate(68.767 11.83)">
      <g id="Grupo_388" data-name="Grupo 388" transform="translate(0)">
        <path id="Caminho_436" data-name="Caminho 436" d="M212.437,231.69a.782.782,0,0,1-.3-1.5,1.07,1.07,0,0,1,1.15.347.782.782,0,1,0,1.088-1.123,3.07,3.07,0,0,0-1.151-.72v-.911a.782.782,0,1,0-1.563,0v.916c-.044.016-.089.032-.132.051a2.345,2.345,0,0,0,.914,4.505.782.782,0,0,1,.268,1.517,1.2,1.2,0,0,1-1.282-.544.782.782,0,0,0-1.2,1.005,3.249,3.249,0,0,0,1.43,1.022v.909a.782.782,0,1,0,1.563,0v-.916l.021-.007a2.345,2.345,0,0,0-.8-4.549Z" transform="translate(-210.042 -227)" fill="#29b6f6"/>
      </g>
    </g>
    <g id="Grupo_391" data-name="Grupo 391" transform="translate(61 0)">
      <g id="Grupo_390" data-name="Grupo 390" transform="translate(0 0)">
        <path id="Caminho_437" data-name="Caminho 437" d="M78.4,11.739a11.084,11.084,0,0,0-3.157-2.709,2.349,2.349,0,0,0-1.16-3.78l2-3.479a.782.782,0,0,0-.46-1.14,16.033,16.033,0,0,0-8.915,0,.782.782,0,0,0-.46,1.14l2,3.479A2.348,2.348,0,0,0,67.08,9.03a11.084,11.084,0,0,0-3.157,2.709A12.82,12.82,0,0,0,61,19.647c0,5.685,4.536,7.035,10.162,7.035s10.162-1.353,10.162-7.035A12.821,12.821,0,0,0,78.4,11.739ZM68.113,1.887a14.505,14.505,0,0,1,6.1,0l-1.721,3a9.588,9.588,0,0,0-2.655,0Zm.511,4.882a8.082,8.082,0,0,1,4.121-.251h0a8.252,8.252,0,0,1,.949.25.782.782,0,0,1-.159,1.52,7.867,7.867,0,0,0-4.751,0,.781.781,0,0,1-.165-1.518Zm2.538,18.36c-6.108,0-8.6-1.6-8.6-5.482a11.392,11.392,0,0,1,2.572-6.922,7.9,7.9,0,0,1,6.026-3.241,7.952,7.952,0,0,1,6.026,3.241,11.392,11.392,0,0,1,2.572,6.922C79.761,23.533,77.27,25.129,71.162,25.129Z" transform="translate(-61 0)" fill="#29b6f6"/>
      </g>
    </g>
  </g>
</svg>
