<svg xmlns="http://www.w3.org/2000/svg" width="19.726" height="18.285" viewBox="0 0 19.726 18.285">
  <g id="funcionamento" transform="translate(-31.377 -168.648)">
    <g id="calendario" transform="translate(-87.344 103.023)">
      <path id="Caminho_2103" data-name="Caminho 2103" d="M123.725,65.625a.84.84,0,0,0-.84.84v.826h-1.458A2.708,2.708,0,0,0,118.721,70V81.2a2.708,2.708,0,0,0,2.705,2.705h14.315a2.708,2.708,0,0,0,2.705-2.705V70a2.708,2.708,0,0,0-2.705-2.705h-1.25v-.826a.84.84,0,1,0-1.679,0v.826h-8.248v-.826a.84.84,0,0,0-.84-.84ZM136.768,81.2a1.027,1.027,0,0,1-1.026,1.026H121.427A1.027,1.027,0,0,1,120.4,81.2v-7.03h16.368ZM132.812,68.97V69.8a.84.84,0,1,0,1.679,0V68.97h1.25A1.027,1.027,0,0,1,136.768,70v2.5H120.4V70a1.027,1.027,0,0,1,1.026-1.026h1.458V69.8a.84.84,0,0,0,1.679,0V68.97Z" fill="#05cb95"/>
    </g>
  </g>
</svg>
