<svg xmlns="http://www.w3.org/2000/svg" width="24" height="22.286" viewBox="0 0 24 22.286">
  <path id="pedidos" d="M108.538,35A3.538,3.538,0,0,0,105,38.536V50.321a3.538,3.538,0,0,0,3.536,3.536h5.036v1.714h-1.714v1.714h10.286V55.571h-1.714V53.857h5.036A3.539,3.539,0,0,0,129,50.321V38.536A3.539,3.539,0,0,0,125.466,35Zm0,1.714h16.928a1.824,1.824,0,0,1,1.821,1.821V50.321a1.824,1.824,0,0,1-1.821,1.821H108.538a1.823,1.823,0,0,1-1.821-1.821V38.536A1.823,1.823,0,0,1,108.538,36.714Zm6.75,17.143h3.429v1.714h-3.429Z" transform="translate(-105.002 -35)" fill="#292f31"/>
</svg>
