<svg id="entrega" xmlns="http://www.w3.org/2000/svg" width="43.805" height="44.398" viewBox="0 0 43.805 44.398">
  <path id="Caminho_2062" data-name="Caminho 2062" d="M144.712,31.109a24.946,24.946,0,0,1,18.153,7.838h-11.91a7.823,7.823,0,0,0-7.821,7.821V50.4a7.793,7.793,0,0,0,4.852,7.227L167.818,65.8a23.554,23.554,0,0,1-2.07,3.936l-9.484-4.072h0a1.566,1.566,0,1,0-1.222,2.884l8.8,3.766a25.222,25.222,0,0,1-3.257,3.19l-12.13-5.4L125.931,60.1v-.814c0-13.623,4.92-28.179,18.78-28.179Z" transform="translate(-125.931 -31.109)" fill="#fff"/>
  <path id="Caminho_2063" data-name="Caminho 2063" d="M104.435,162.319v-3.63a4.706,4.706,0,0,1,4.683-4.7h14.438A25,25,0,0,1,127.9,168.07a24.266,24.266,0,0,1-.9,6.684l-19.662-8.092a4.674,4.674,0,0,1-2.9-4.343Z" transform="translate(-84.093 -143.029)" fill="#fff"/>
</svg>
