<svg xmlns="http://www.w3.org/2000/svg" width="15.962" height="23.098" viewBox="0 0 15.962 23.098">
  <g id="lembrete" transform="translate(54.544 30)">
    <g id="Grupo_3" data-name="Grupo 3" transform="translate(-54.544 -30)">
      <path id="Caminho_3" data-name="Caminho 3" d="M36.01,6.892h3.408L37.607,4.521,39.418,2.15H36.01V1.989a1.911,1.911,0,1,0-3.82,0v4.29a1.877,1.877,0,0,0-1.048-.322,1.9,1.9,0,0,0-1.438.672,1.875,1.875,0,0,0-2.877,0,1.9,1.9,0,0,0-1.439-.672,1.954,1.954,0,0,0-1.921,1.883l-.011.052v8.333c0,4.048,3.185,6.873,7.749,6.873s7.749-2.825,7.749-6.873V11.446a1.224,1.224,0,0,0-.4-.789A6.919,6.919,0,0,0,36,9.992l.006-.026V6.893h0Zm-2.869,0h1.921V9.871c-.4-.046-.786-.085-1.115-.117a3.922,3.922,0,0,0-.808,0l0-2.861ZM37.5,5.943H33.277V3.1H37.5L36.415,4.521Zm-3.4-5a1,1,0,0,1,.96,1.04V2.15H33.142V1.989A1,1,0,0,1,34.1.948ZM31.142,6.905a1.016,1.016,0,0,1,.985,1.043V9.887l.039.186a1.707,1.707,0,0,0-.646.836,1.886,1.886,0,0,0-.055,1.108.911.911,0,0,1-.265.043,1.006,1.006,0,0,1-.975-1l0-.041V7.871L30.2,7.733A.984.984,0,0,1,31.142,6.905Zm-2.875,0a1,1,0,0,1,.958.9l-.015.141v3.2l.022.112a.983.983,0,0,1-.935.8,1,1,0,0,1-.973-.983V7.869L27.311,7.8A1,1,0,0,1,28.267,6.905ZM24.408,9.892V7.946A1.015,1.015,0,0,1,25.392,6.9a1,1,0,0,1,.958.9l-.014.142v3.283a.988.988,0,0,1-.943.828,1.016,1.016,0,0,1-.985-1.042Zm13.525,1.476.076.078v4.779c0,3.488-2.8,5.924-6.8,5.924s-6.8-2.436-6.8-5.924v-3.5a1.876,1.876,0,0,0,.985.287,1.9,1.9,0,0,0,1.452-.691,1.87,1.87,0,0,0,2.9,0,1.906,1.906,0,0,0,1.452.691,1.865,1.865,0,0,0,.722-.159,2.063,2.063,0,0,0,.843.576l3.027.837a.478.478,0,0,0,.583-.333.473.473,0,0,0-.332-.582l-2.99-.824a1.022,1.022,0,0,1-.643-1.287c.074-.2.241-.673,1.438-.535A19.4,19.4,0,0,1,37.933,11.368Z" transform="translate(-23.456 0)" fill="#292f31"/>
    </g>
  </g>
</svg>
