<svg xmlns="http://www.w3.org/2000/svg" width="29.388" height="29.374" viewBox="0 0 29.388 29.374">
  <g id="telefone" transform="translate(-70.124 -70.628)">
    <g id="Grupo_534" data-name="Grupo 534" transform="translate(70.124 70.628)">
      <g id="Grupo_533" data-name="Grupo 533" transform="translate(0)">
        <path id="Caminho_1101" data-name="Caminho 1101" d="M97.355,95.142c-.176.176-.356.353-.539.522-.143.13-.289.256-.439.376l-.113.09c-.093.077.206-.153.043-.033l-.23.17a10.351,10.351,0,0,1-1.959,1.088l.239-.1a10.56,10.56,0,0,1-2.6.705l.266-.037a10.383,10.383,0,0,1-2.744,0l.266.037a10.363,10.363,0,0,1-2.618-.718l.239.1a10.27,10.27,0,0,1-1.643-.881c-.12-.08-.239-.163-.359-.246-.063-.047-.123-.093-.186-.136-.126-.093.073.057.08.06-.043-.03-.083-.063-.123-.1-.249-.2-.492-.416-.725-.642-.153-.15-.306-.3-.459-.456l-2.461-2.461-3.359-3.359-2.6-2.6-.482-.482c-.106-.106-.21-.213-.313-.326s-.2-.216-.289-.329c-.04-.05-.083-.1-.123-.15-.027-.03-.05-.063-.076-.093-.1-.126.02.033.053.07a7.857,7.857,0,0,1-.941-1.474c-.13-.246-.249-.5-.359-.758l.1.239a10.308,10.308,0,0,1-.715-2.611c.013.09.023.176.037.266a10.492,10.492,0,0,1,0-2.777c-.013.09-.023.176-.037.266a10.345,10.345,0,0,1,.715-2.611l-.1.239a10.165,10.165,0,0,1,1.227-2.135c.047-.06.183-.22-.027.03.03-.037.06-.077.09-.113.067-.083.133-.163.2-.243.136-.16.279-.316.426-.469.09-.093.18-.183.269-.273.027-.027.053-.05.08-.076.12-.12-.2.133-.05.037a1.994,1.994,0,0,1,.286-.156l-.24.1a1.835,1.835,0,0,1,.4-.106l-.266.037a1.684,1.684,0,0,1,.409,0l-.266-.037a1.785,1.785,0,0,1,.4.106l-.239-.1a2.108,2.108,0,0,1,.306.17c.077.047-.106-.083-.106-.083a.478.478,0,0,0,.073.063.378.378,0,0,1,.037.037l.053.053.289.289,1.114,1.114L79.826,76.8l.369.369.073.073c.03.03.1.073.1.113,0,0-.153-.22-.07-.086l.05.08c.04.067.073.136.106.206l-.1-.24a1.812,1.812,0,0,1,.106.4c-.013-.09-.023-.176-.037-.266a1.683,1.683,0,0,1,0,.409c.013-.09.023-.176.037-.266a1.862,1.862,0,0,1-.106.4l.1-.239a1.349,1.349,0,0,1-.106.206l-.05.08c-.093.153.14-.16.053-.07-.04.04-.076.083-.113.12l-.3.3-.792.792a4.329,4.329,0,0,0-.968,1.457,4,4,0,0,0-.2,2.162,4.062,4.062,0,0,0,1.224,2.2l1.064,1.064L83.7,89.477l1.254,1.254a4.916,4.916,0,0,0,1.37,1.068,3.981,3.981,0,0,0,2.109.386,4.153,4.153,0,0,0,2.2-.928,8.489,8.489,0,0,0,.682-.659c.24-.239.479-.482.718-.718.033-.033.067-.063.1-.093.126-.126-.173.12-.07.053.033-.02.063-.043.1-.063.067-.04.136-.073.206-.106l-.239.1a1.812,1.812,0,0,1,.4-.106l-.266.037a1.684,1.684,0,0,1,.409,0l-.266-.037a1.862,1.862,0,0,1,.4.106l-.239-.1a2.108,2.108,0,0,1,.306.17c.077.047-.106-.083-.106-.083a.478.478,0,0,0,.073.063.379.379,0,0,1,.037.037l.053.053.289.289,1.114,1.114,2.575,2.575.369.369.073.073c.03.03.1.073.1.113,0,0-.153-.22-.07-.086l.05.08c.04.067.073.136.106.206l-.1-.239a1.834,1.834,0,0,1,.106.4c-.013-.09-.023-.176-.037-.266a1.684,1.684,0,0,1,0,.409c.013-.09.023-.176.037-.266a1.784,1.784,0,0,1-.106.4l.1-.24a1.576,1.576,0,0,1-.13.246c-.01.013-.017.027-.027.04-.06.083-.037.053.07-.086-.033.033-.063.076-.1.11a1,1,0,0,0,1.41,1.41,2.605,2.605,0,0,0,.393-3.13,4.079,4.079,0,0,0-.629-.742L96.647,90.8l-1.992-1.992c-.12-.12-.239-.243-.363-.363A2.613,2.613,0,0,0,91.245,88a5.965,5.965,0,0,0-1.311,1.164c-.153.153-.3.306-.456.456l-.083.083c-.037.033-.073.067-.11.1-.193.166.153-.1.013-.01a3.412,3.412,0,0,1-.569.319l.239-.1a3.046,3.046,0,0,1-.748.206l.266-.037a3.038,3.038,0,0,1-.815,0l.266.037a3.046,3.046,0,0,1-.748-.206l.239.1a2.941,2.941,0,0,1-.452-.24c-.076-.05-.283-.23-.03-.01-.073-.063-.15-.123-.22-.193l-.08-.08-.376-.376-1.557-1.557-3.642-3.642-.492-.492-.077-.077-.15-.16c-.027-.03-.05-.063-.077-.093.21.226.077.1.03.03a2.934,2.934,0,0,1-.279-.512l.1.239a3.046,3.046,0,0,1-.206-.748c.013.09.023.176.037.266a3.04,3.04,0,0,1,0-.815c-.013.09-.023.176-.037.266a3.046,3.046,0,0,1,.206-.748l-.1.239a2.942,2.942,0,0,1,.239-.452c.05-.076.233-.273.01-.03.067-.07.123-.15.193-.22.083-.086.17-.17.253-.253l.9-.9A2.629,2.629,0,0,0,82.45,77.6a2.674,2.674,0,0,0-.792-1.79Q80.032,74.17,78.4,72.543c-.389-.389-.772-.778-1.164-1.164a2.633,2.633,0,0,0-2.3-.715,3.222,3.222,0,0,0-1.809,1.181,11.236,11.236,0,0,0,.3,15.593c.689.692,1.377,1.377,2.069,2.069l3.935,3.935,2.987,2.987a13.8,13.8,0,0,0,1.264,1.148,11.212,11.212,0,0,0,13.4.412,13.337,13.337,0,0,0,1.686-1.434,1,1,0,0,0-1.414-1.414Z" transform="translate(-70.124 -70.628)" fill="#292f31"/>
      </g>
    </g>
  </g>
</svg>
