<svg xmlns="http://www.w3.org/2000/svg" width="30.641" height="23.761" viewBox="0 0 30.641 23.761">
  <g id="cirrus" transform="translate(0 0)">
    <path id="Caminho_2162" data-name="Caminho 2162" d="M101.677,31.8H93.392V16.913h8.285Z" transform="translate(-82.214 -14.889)" fill="#2271ce"/>
    <path id="Caminho_2163" data-name="Caminho 2163" d="M11.7-148.764a9.453,9.453,0,0,1,3.616-7.445,9.427,9.427,0,0,0-5.852-2.025A9.469,9.469,0,0,0,0-148.764a9.469,9.469,0,0,0,9.468,9.469,9.428,9.428,0,0,0,5.852-2.025,9.453,9.453,0,0,1-3.616-7.445" transform="translate(0 158.233)" fill="#005eb6"/>
    <path id="Caminho_2164" data-name="Caminho 2164" d="M143.322-148.764a9.469,9.469,0,0,1-9.468,9.469A9.428,9.428,0,0,1,128-141.319a9.453,9.453,0,0,0,3.616-7.445A9.453,9.453,0,0,0,128-156.208a9.427,9.427,0,0,1,5.852-2.025,9.469,9.469,0,0,1,9.468,9.469" transform="translate(-112.681 158.233)" fill="#0099df"/>
    <path id="Caminho_2165" data-name="Caminho 2165" d="M86.694,167.965a1.882,1.882,0,0,0-1.025-.263c-.637,0-1.047.305-1.047.8,0,.41.305.662.868.742l.258.037c.3.042.441.121.441.262,0,.2-.2.305-.573.305a1.339,1.339,0,0,1-.836-.263l-.258.426a1.813,1.813,0,0,0,1.088.326c.726,0,1.147-.342,1.147-.821,0-.442-.331-.673-.878-.753l-.258-.037c-.236-.031-.426-.079-.426-.247,0-.184.179-.294.479-.294a1.622,1.622,0,0,1,.784.216Zm-12.917,1.057a1.27,1.27,0,0,0,1.341,1.32,1.317,1.317,0,0,0,.9-.3l-.263-.442a1.1,1.1,0,0,1-.657.226.806.806,0,0,1,0-1.61,1.1,1.1,0,0,1,.657.226l.263-.442a1.316,1.316,0,0,0-.9-.3A1.27,1.27,0,0,0,73.777,169.022Zm5.273-1.32a.742.742,0,0,0-.663.368v-.305h-.541v2.514h.547v-1.41c0-.415.179-.647.536-.647a.884.884,0,0,1,.342.063l.168-.515A1.162,1.162,0,0,0,79.05,167.7Zm2.032,0a.742.742,0,0,0-.663.368v-.305h-.541v2.514h.547v-1.41c0-.415.179-.647.536-.647a.885.885,0,0,1,.342.063l.168-.515A1.162,1.162,0,0,0,81.081,167.7Zm-3.832,2.576H76.7v-2.51h.55Zm-.278-3.765a.385.385,0,0,1,.275.113.387.387,0,0,1,.082.123.375.375,0,0,1,.03.152.38.38,0,0,1-.03.152.369.369,0,0,1-.082.122.375.375,0,0,1-.123.079.4.4,0,0,1-.152.029.4.4,0,0,1-.152-.029.361.361,0,0,1-.122-.079.371.371,0,0,1-.079-.122.4.4,0,0,1-.029-.152.4.4,0,0,1,.029-.152.385.385,0,0,1,.079-.123.367.367,0,0,1,.122-.082A.376.376,0,0,1,76.971,166.513Zm7.213,2.7a1.233,1.233,0,0,1-.1.514.992.992,0,0,1-.259.351,1.033,1.033,0,0,1-.367.2,1.429,1.429,0,0,1-.849,0,1.042,1.042,0,0,1-.369-.2.979.979,0,0,1-.259-.351,1.243,1.243,0,0,1-.1-.514v-1.447h.544v1.4a.911.911,0,0,0,.046.308.545.545,0,0,0,.128.205.484.484,0,0,0,.193.114.815.815,0,0,0,.476,0,.484.484,0,0,0,.193-.114.536.536,0,0,0,.128-.205.9.9,0,0,0,.046-.308v-1.4h.544Z" transform="translate(-64.946 -146.583)" fill="#231f20"/>
  </g>
</svg>
