<svg xmlns="http://www.w3.org/2000/svg" width="45.094" height="43.884" viewBox="0 0 45.094 43.884">
  <g id="caixa" transform="translate(-5.364 -5.65)">
    <g id="Grupo_530" data-name="Grupo 530" transform="translate(5.364 5.65)">
      <g id="Grupo_529" data-name="Grupo 529">
        <path id="Caminho_1084" data-name="Caminho 1084" d="M38.1,18.362l-6.063-7.568-.085-.106-.127-.127-.784.763.085.021.657.827H31.8l5.47,6.848L32.1,21.33l-.975.424L23.45,25.167,20.334,22.05l-.742.742-2.756,2.735-.636.636v13.78l.127-.042,15.2-6.084a1.036,1.036,0,0,0,.657-.975V22.453L37.7,19.994a1.021,1.021,0,0,0,.594-.721A1.075,1.075,0,0,0,38.1,18.362Z" transform="translate(6.771 -0.151)" fill="#fff"/>
        <path id="Caminho_1085" data-name="Caminho 1085" d="M13.072,25.841l-.827.827-.806.806L20.514,31.1V18.4l-.466.466Z" transform="translate(1.44 8.63)" fill="#fff"/>
        <path id="Caminho_1086" data-name="Caminho 1086" d="M28.972,28.016l1.251-1.23.742-.742,7.1-7.123,1.887-1.887.276-.276.806-.806.806-.806,8.014-8.014L48.37,5.65,39.72,14.3l-2.141-.869L28.315,9.72a1.06,1.06,0,0,0-.806,0L12.33,15.8a1.141,1.141,0,0,0-.424.212,1.279,1.279,0,0,0-.17.17l-.085.106L5.588,23.861a1.075,1.075,0,0,0-.191.912,1.021,1.021,0,0,0,.594.721L11.5,27.952V38.34a1.03,1.03,0,0,0,.36.806,1.352,1.352,0,0,0,.3.17l1.823.721L5.97,48.05l1.484,1.484,8.65-8.65.806-.806.806-.806,9.137-9.137.466-.466,1.018-1.018Zm-22.557-3.5,5.47-6.848h.021l.657-.827,14.268,5.724.106.021v.021l.975.382-.742.742-.064.064-.254.254-6.614,6.614-7.674-3.413-.975-.424Z" transform="translate(-5.364 -5.65)" fill="#fff"/>
      </g>
    </g>
  </g>
</svg>
