<svg xmlns="http://www.w3.org/2000/svg" width="38.9" height="38.9" viewBox="0 0 38.9 38.9">
  <g id="pix" transform="translate(0.023 -23.092)">
    <path id="Caminho_1956" data-name="Caminho 1956" d="M86.447,208.939a5.678,5.678,0,0,1-4.04-1.668l-5.836-5.839a1.109,1.109,0,0,0-1.533,0l-5.855,5.855a5.681,5.681,0,0,1-4.04,1.672H64l7.395,7.395a5.916,5.916,0,0,0,8.357,0l7.41-7.411Z" transform="translate(-56.132 -156.091)" fill="#888b8b"/>
    <path id="Caminho_1957" data-name="Caminho 1957" d="M65.144,32.212a5.679,5.679,0,0,1,4.04,1.672l5.855,5.857a1.086,1.086,0,0,0,1.533,0l5.834-5.834a5.669,5.669,0,0,1,4.04-1.674h.7l-7.41-7.41a5.908,5.908,0,0,0-8.357,0L64,32.212Z" transform="translate(-56.132 0)" fill="#888b8b"/>
    <path id="Caminho_1958" data-name="Caminho 1958" d="M37.146,115.007l-4.478-4.478a.862.862,0,0,1-.318.064H30.315a4.02,4.02,0,0,0-2.826,1.171L21.654,117.6a2.8,2.8,0,0,1-3.96,0l-5.857-5.853a4.02,4.02,0,0,0-2.826-1.172h-2.5a.877.877,0,0,1-.3-.06l-4.506,4.5a5.916,5.916,0,0,0,0,8.357l4.5,4.5a.844.844,0,0,1,.3-.06H9.012a4.021,4.021,0,0,0,2.826-1.172l5.855-5.855a2.87,2.87,0,0,1,3.961,0l5.834,5.833a4.02,4.02,0,0,0,2.826,1.171h2.036a.849.849,0,0,1,.318.064l4.478-4.478a5.908,5.908,0,0,0,0-8.357" transform="translate(0 -76.644)" fill="#888b8b"/>
  </g>
</svg>
