<svg xmlns="http://www.w3.org/2000/svg" width="42.24" height="42.24" viewBox="0 0 42.24 42.24">
  <g id="qrcode" transform="translate(-175 -105)">
    <path id="Caminho_2178" data-name="Caminho 2178" d="M175,109.224A4.224,4.224,0,0,1,179.224,105h2.271a1.408,1.408,0,1,1,0,2.816h-2.271a1.408,1.408,0,0,0-1.408,1.408v3.025a1.408,1.408,0,0,1-2.816,0Z" transform="translate(0 0)" fill="#292f31"/>
    <path id="Caminho_2179" data-name="Caminho 2179" d="M175,387.706a4.224,4.224,0,0,0,4.224,4.224h2.271a1.408,1.408,0,1,0,0-2.816h-2.271a1.408,1.408,0,0,1-1.408-1.408v-3.025a1.408,1.408,0,0,0-2.816,0Z" transform="translate(0 -244.69)" fill="#292f31"/>
    <path id="Caminho_2180" data-name="Caminho 2180" d="M467.419,109.224A4.224,4.224,0,0,0,463.195,105h-2.271a1.408,1.408,0,1,0,0,2.816h2.271a1.408,1.408,0,0,1,1.408,1.408v3.025a1.408,1.408,0,0,0,2.816,0Z" transform="translate(-250.179 0)" fill="#292f31"/>
    <path id="Caminho_2181" data-name="Caminho 2181" d="M467.419,387.706a4.224,4.224,0,0,1-4.224,4.224h-2.271a1.408,1.408,0,1,1,0-2.816h2.271a1.408,1.408,0,0,0,1.408-1.408v-3.025a1.408,1.408,0,0,1,2.816,0Z" transform="translate(-250.179 -244.69)" fill="#292f31"/>
    <path id="Caminho_2182" data-name="Caminho 2182" d="M233.33,166.15a2.817,2.817,0,0,1,2.816-2.816h3.52a2.817,2.817,0,0,1,2.816,2.816v3.52a2.817,2.817,0,0,1-2.816,2.816h-3.52a2.817,2.817,0,0,1-2.816-2.816Zm6.336,0h-3.52v3.52h3.52Z" transform="translate(-51.29 -51.294)" fill="#292f31"/>
    <path id="Caminho_2183" data-name="Caminho 2183" d="M233.33,323.65a2.817,2.817,0,0,1,2.816-2.816h3.52a2.816,2.816,0,0,1,2.816,2.816v3.52a2.817,2.817,0,0,1-2.816,2.816h-3.52a2.817,2.817,0,0,1-2.816-2.816Zm6.336,0h-3.52v3.52h3.52Z" transform="translate(-51.29 -189.786)" fill="#292f31"/>
    <path id="Caminho_2184" data-name="Caminho 2184" d="M390.83,166.15a2.817,2.817,0,0,1,2.816-2.816h3.52a2.817,2.817,0,0,1,2.816,2.816v3.52a2.817,2.817,0,0,1-2.816,2.816h-3.52a2.817,2.817,0,0,1-2.816-2.816Zm6.336,0h-3.52v3.52h3.52Z" transform="translate(-189.782 -51.294)" fill="#292f31"/>
    <path id="Caminho_2185" data-name="Caminho 2185" d="M245.339,164.74a1.408,1.408,0,0,1,1.408-1.408h2a1.408,1.408,0,0,1,1.408,1.408v6.336a1.408,1.408,0,0,1-1.408,1.408h-3.335a1.408,1.408,0,1,1,0-2.816h1.927v-3.52h-.593a1.408,1.408,0,0,1-1.408-1.408Zm-4.261,9.856A1.408,1.408,0,0,1,242.485,176v3.168a1.408,1.408,0,0,1-1.408,1.408h-6.336a1.408,1.408,0,1,1,0-2.816h4.928V176A1.408,1.408,0,0,1,241.077,174.6Zm4.335,0A1.408,1.408,0,0,1,246.82,176v3.168a1.408,1.408,0,1,1-2.816,0V176A1.408,1.408,0,0,1,245.413,174.6ZM253.045,176a1.408,1.408,0,0,1,1.408-1.408h5.632a1.408,1.408,0,1,1,0,2.816h-5.632A1.408,1.408,0,0,1,253.045,176Zm-7.633,6.336a1.408,1.408,0,0,1,1.408,1.408v6.336a1.408,1.408,0,1,1-2.816,0v-6.336A1.408,1.408,0,0,1,245.413,182.34Z" transform="translate(-51.293 -51.292)" fill="#292f31"/>
    <path id="Caminho_2186" data-name="Caminho 2186" d="M362.078,300.318a1.408,1.408,0,0,1,1-.412h9.856a1.408,1.408,0,1,1,0,2.816h-8.448v7.454a1.408,1.408,0,1,1-2.816,0v-8.862a1.409,1.409,0,0,1,.412-1Z" transform="translate(-164.138 -171.383)" fill="#292f31"/>
    <path id="Caminho_2187" data-name="Caminho 2187" d="M405.314,338.574a1.408,1.408,0,1,1-1.408-1.408A1.408,1.408,0,0,1,405.314,338.574Z" transform="translate(-200.042 -204.147)" fill="#292f31"/>
    <path id="Caminho_2188" data-name="Caminho 2188" d="M364.484,258.074a1.408,1.408,0,1,1-1.408-1.408A1.408,1.408,0,0,1,364.484,258.074Z" transform="translate(-164.14 -133.362)" fill="#292f31"/>
    <path id="Caminho_2189" data-name="Caminho 2189" d="M403.708,338.33a1.408,1.408,0,0,1,1.408,1.408v4.224a1.408,1.408,0,0,1-1.408,1.408h-5.632a1.408,1.408,0,0,1,0-2.816H402.3v-2.816A1.408,1.408,0,0,1,403.708,338.33Z" transform="translate(-194.916 -205.17)" fill="#292f31"/>
  </g>
</svg>
