<svg xmlns="http://www.w3.org/2000/svg" width="19.83" height="19.83" viewBox="0 0 19.83 19.83">
  <g id="categorias" transform="translate(-3 -3)">
    <g id="Grupo_24" data-name="Grupo 24" transform="translate(3 3)">
      <path id="Caminho_14" data-name="Caminho 14" d="M9.61,14.567H4.652A1.657,1.657,0,0,0,3,16.22v4.957A1.657,1.657,0,0,0,4.652,22.83H9.61a1.657,1.657,0,0,0,1.652-1.652V16.22A1.657,1.657,0,0,0,9.61,14.567Zm0,6.61H4.652V16.22H9.61ZM9.61,3H4.652A1.657,1.657,0,0,0,3,4.652V9.61a1.657,1.657,0,0,0,1.652,1.652H9.61A1.657,1.657,0,0,0,11.262,9.61V4.652A1.657,1.657,0,0,0,9.61,3Zm0,6.61H4.652V4.652H9.61ZM21.177,3H16.22a1.657,1.657,0,0,0-1.652,1.652V9.61a1.657,1.657,0,0,0,1.652,1.652h4.957A1.657,1.657,0,0,0,22.83,9.61V4.652A1.657,1.657,0,0,0,21.177,3Zm0,6.61H16.22V4.652h4.957Zm0,4.957H16.22a1.657,1.657,0,0,0-1.652,1.652v4.957A1.657,1.657,0,0,0,16.22,22.83h4.957a1.657,1.657,0,0,0,1.652-1.652V16.22A1.657,1.657,0,0,0,21.177,14.567Zm0,6.61H16.22V16.22h4.957Z" transform="translate(-3 -3)" fill="#292f31" fill-rule="evenodd"/>
    </g>
  </g>
</svg>
