<svg xmlns="http://www.w3.org/2000/svg" width="20" height="20" viewBox="0 0 20 20">
  <g id="pedidos" transform="translate(-30.999 -207)">
    <g id="pedidos-2" data-name="pedidos" transform="translate(33.316 207)">
      <g id="pedidos-3" data-name="pedidos" transform="translate(-2.317)">
        <path id="Caminho_144" data-name="Caminho 144" d="M18.909,6.156,16.862,4.109V1.841A1.841,1.841,0,0,0,15.021,0H3.724A1.841,1.841,0,0,0,1.883,1.841V3.1a1.838,1.838,0,0,0,.77,1.5L1.091,6.156A3.7,3.7,0,0,0,0,8.789V19.414A.586.586,0,0,0,.586,20H19.414A.586.586,0,0,0,20,19.414V8.789a3.7,3.7,0,0,0-1.091-2.633ZM14.352,1.841a.669.669,0,1,1,1.339,0V3.1a.669.669,0,1,1-1.339,0Zm-11.3,0a.669.669,0,0,1,.669-.669h9.581a1.831,1.831,0,0,0-.126.669V3.1a1.84,1.84,0,0,0,.125.669H3.724A.669.669,0,0,1,3.055,3.1Zm9.5,6.948V18.828H1.172V8.789a2.535,2.535,0,0,1,.747-1.8L3.967,4.938H14.861L13.643,6.156a3.7,3.7,0,0,0-1.091,2.633Zm6.276,10.039h-5.1V8.789a2.535,2.535,0,0,1,.747-1.8l1.8-1.8,1.8,1.8a2.535,2.535,0,0,1,.747,1.8Z" fill="#05cb95"/>
        <path id="Caminho_145" data-name="Caminho 145" d="M99.479,241a3.079,3.079,0,1,0,3.079,3.079A3.083,3.083,0,0,0,99.479,241Zm0,4.993a1.914,1.914,0,1,1,1.914-1.914A1.916,1.916,0,0,1,99.479,245.993Z" transform="translate(-92.625 -231.563)" fill="#05cb95"/>
      </g>
    </g>
  </g>
</svg>
