<svg xmlns="http://www.w3.org/2000/svg" width="20.652" height="17.702" viewBox="0 0 20.652 17.702">
  <g id="email" transform="translate(-2 -4)">
    <g id="Grupo_406" data-name="Grupo 406" transform="translate(2.148 4)">
      <path id="Caminho_927" data-name="Caminho 927" d="M12.379,13.441,22.557,6.655A3.651,3.651,0,0,0,19.017,4H5.74A3.651,3.651,0,0,0,2.2,6.655Z" transform="translate(-2.2 -4)" fill="#05cb95"/>
    </g>
    <g id="Grupo_407" data-name="Grupo 407" transform="translate(2 8.352)">
      <path id="Caminho_928" data-name="Caminho 928" d="M12.769,16.464a1.048,1.048,0,0,1-.443.148,1.048,1.048,0,0,1-.443-.148L2,9.9v9.662A3.652,3.652,0,0,0,5.688,23.25H18.964a3.652,3.652,0,0,0,3.688-3.688V9.9Z" transform="translate(-2 -9.9)" fill="#05cb95"/>
    </g>
  </g>
</svg>
