<svg xmlns="http://www.w3.org/2000/svg" width="22" height="19.054" viewBox="0 0 22 19.054">
  <g id="enviar" transform="translate(-73.584 -46.963)">
    <path id="Caminho_934" data-name="Caminho 934" d="M102.541,47.171a.909.909,0,0,0-.923-.141L81.735,55.122l-.013.007a1.423,1.423,0,0,0-.847,1.386v0a1.4,1.4,0,0,0,1.006,1.267l7.526,2.276.273,5.1v0a.908.908,0,0,0,.61.8.841.841,0,0,0,.3.054.9.9,0,0,0,.682-.3l2.526-2.8,3.623,2.508a1.394,1.394,0,0,0,.807.255,1.43,1.43,0,0,0,1.388-1.131.008.008,0,0,1,0-.007l3.237-16.49a.926.926,0,0,0-.315-.881Zm-2.081,3.623L97.95,63.576l-6.239-4.319ZM92.288,61.868l-.912,1.008-.089-1.7ZM98.3,50.348l-8.266,8L83.5,56.372Z" transform="translate(-7.288 0)" fill="#738b85"/>
  </g>
</svg>
