<svg xmlns="http://www.w3.org/2000/svg" width="20" height="19.996" viewBox="0 0 20 19.996">
  <g id="instagram" transform="translate(0 -0.001)">
    <g id="Dribbble-Light-Preview" transform="translate(-340 -7439)">
      <g id="icons" transform="translate(56 160)">
        <path id="instagram-_167_" data-name="instagram-[#167]" d="M289.87,7279.12a5.518,5.518,0,0,0-5.788,5.78c-.046,1-.314,8.6.462,10.59a5.034,5.034,0,0,0,2.911,2.9,7,7,0,0,0,2.415.46c8.86.4,12.145.19,13.53-3.36a7.217,7.217,0,0,0,.462-2.41c.4-8.88-.066-10.81-1.61-12.35-1.225-1.22-2.666-2.05-12.382-1.61m.081,17.95a5.87,5.87,0,0,1-1.848-.34,3.28,3.28,0,0,1-1.888-1.89c-.591-1.51-.395-8.7-.342-9.86a4.263,4.263,0,0,1,1.086-2.99c.995-.99,2.281-1.48,11.034-1.08a4.266,4.266,0,0,1,2.992,1.08c1,.99,1.489,2.29,1.087,11.01a5.445,5.445,0,0,1-.342,1.84c-.9,2.31-2.973,2.63-11.779,2.23m8.139-13.38a1.195,1.195,0,1,0,1.194-1.19,1.19,1.19,0,0,0-1.194,1.19m-9.227,5.3a5.11,5.11,0,1,0,5.109-5.1,5.1,5.1,0,0,0-5.109,5.1m1.793,0a3.317,3.317,0,1,1,3.316,3.31,3.311,3.311,0,0,1-3.316-3.31" fill="#05cb95" fill-rule="evenodd"/>
      </g>
    </g>
  </g>
</svg>
