<svg id="whatsapp" xmlns="http://www.w3.org/2000/svg" width="34.158" height="34.158" viewBox="0 0 34.158 34.158">
  <g id="Dribbble-Light-Preview">
    <g id="icons">
      <path id="whatsapp-_128_" data-name="whatsapp-[#128]" d="M271.021,7463.116c-.412,1.161-2.048,2.135-3.353,2.407-.893.188-2.058.343-5.983-1.281-4.408-1.826-10.529-8.333-10.529-12.654,0-2.2,1.271-4.783,3.493-4.783,1.069,0,1.3.034,1.657.871.412.991,1.416,3.45,1.535,3.689.494,1.042-.5,1.639-1.225,2.528a.815.815,0,0,0-.2,1.076,15.087,15.087,0,0,0,2.77,3.433,12.61,12.61,0,0,0,4.005,2.477,1.072,1.072,0,0,0,1.2-.187,19.729,19.729,0,0,0,1.336-1.777.949.949,0,0,1,1.225-.358,34.28,34.28,0,0,1,4.355,2.185,4.242,4.242,0,0,1-.29,2.375M261.083,7439h-.009A17.1,17.1,0,0,0,244,7456.08a16.906,16.906,0,0,0,3.252,10.007l-2.128,6.354,6.563-2.1a16.9,16.9,0,0,0,9.4,2.818,17.079,17.079,0,0,0,0-34.158" transform="translate(-244 -7439.001)" fill="#05cb95" fill-rule="evenodd"/>
    </g>
  </g>
</svg>
